<?xml version="1.0" encoding="iso-8859-1"?>
<!-- Generator: Adobe Illustrator 19.0.0, SVG Export Plug-In . SVG Version: 6.00 Build 0)  -->
<svg version="1.1" id="Capa_1" xmlns="http://www.w3.org/2000/svg" xmlns:xlink="http://www.w3.org/1999/xlink" x="0px" y="0px"
	 viewBox="0 0 512 512" style="enable-background:new 0 0 512 512;" xml:space="preserve">
<path style="fill:#34495E;" d="M512,402.282c0,16.716-13.55,30.267-30.265,30.267H30.265C13.55,432.549,0,418.997,0,402.282V109.717
	c0-16.715,13.55-30.266,30.265-30.266h451.469c16.716,0,30.266,13.551,30.266,30.266V402.282z"/>
<path style="opacity:0.15;fill:#202121;enable-background:new    ;" d="M21.517,402.282V109.717
	c0-16.715,13.552-30.266,30.267-30.266h-21.52C13.55,79.451,0,93.003,0,109.717v292.565c0,16.716,13.55,30.267,30.265,30.267h21.52
	C35.07,432.549,21.517,418.997,21.517,402.282z"/>
<g>
	<path style="fill:#E7E8E3;" d="M207.372,178.276H55.437c-4.611,0-8.348-3.736-8.348-8.348c0-4.611,3.736-8.348,8.348-8.348h151.935
		c4.611,0,8.348,3.736,8.348,8.348C215.72,174.54,211.982,178.276,207.372,178.276z"/>
	<path style="fill:#E7E8E3;" d="M207.372,213.089H55.437c-4.611,0-8.348-3.736-8.348-8.348c0-4.611,3.736-8.348,8.348-8.348h151.935
		c4.611,0,8.348,3.736,8.348,8.348C215.72,209.352,211.982,213.089,207.372,213.089z"/>
</g>
<path style="fill:#FFFFFF;" d="M361.124,215.587c-5.759-0.453-18.281-0.61-37.572,3.396c-27.491,5.708-40.181,31.09-40.181,50.972
	c0,19.876,19.029,42.928,47.58,42.928c21.846,0,34.167-13.135,38.737-19.304c1.022-1.365,3.089-1.302,4.019,0.142
	c1.129,1.766,2.741,4.105,4.826,6.682c2.228,2.766,5.207,5.526,7.622,7.592c2.333,2.001,5.805,1.885,8.037-0.225l18.926-18.03
	c2.192-2.09,2.493-5.476,0.698-7.91c-1.044-1.411-2.361-3.236-3.989-5.532c-5.079-7.193-4.863-12.9-4.863-12.9v-66.832
	c0-8.034-4.865-41.023-56.042-41.023c-41.796,0-54.537,29.761-57.803,40.673c-0.627,2.09,0.735,4.237,2.885,4.598l25.954,4.385
	c1.574,0.265,3.141-0.524,3.846-1.958c2.851-5.761,11.122-19.787,24.056-19.787c16.292,0.007,16.924,13.328,16.924,13.328v15.4
	C364.787,214.168,363.11,215.741,361.124,215.587z M365.215,240.305v19.486c0,10.177-7.007,19.096-16.939,21.304
	c-2.57,0.573-5.504,0.914-8.87,0.914c-21.565,0-17.548-27.707-7.609-35.956c7.535-6.254,22.84-8.373,29.813-9.03
	C363.546,236.84,365.215,238.364,365.215,240.305z"/>
<path style="fill:#EB7C0A;" d="M243,319.699c0,0-2.426,4.647,4.976,13.744c7.394,9.097,44.983,39.01,91.995,39.01
	c38.692,0,54.977-8.03,71.684-17.331c16.707-9.308,29.752-22.776,27.429-27.143c-2.329-4.363-15.722,6.711-29.557,11.719
	c-8.646,3.131-35.089,12.04-72.521,12.04s-75.08-26.441-83.113-32.039C245.857,314.091,243,319.699,243,319.699z"/>
<path style="fill:#E7E8E3;" d="M361.124,215.587c-5.759-0.453-18.281-0.61-37.572,3.396c-27.491,5.708-40.181,31.09-40.181,50.972
	c0,19.876,19.029,42.928,47.58,42.928c21.846,0,34.167-13.135,38.737-19.304c1.022-1.365,3.089-1.302,4.019,0.142
	c1.129,1.766,2.741,4.105,4.826,6.682c2.228,2.766,5.207,5.526,7.622,7.592c2.333,2.001,5.805,1.885,8.037-0.225l18.926-18.03
	c2.192-2.09,2.493-5.476,0.698-7.91c-1.044-1.411-2.361-3.236-3.989-5.532c-5.079-7.193-4.863-12.9-4.863-12.9v-66.832
	c0-8.034-4.865-41.023-56.042-41.023c-41.796,0-54.537,29.761-57.803,40.673c-0.627,2.09,0.735,4.237,2.885,4.598l25.954,4.385
	c1.574,0.265,3.141-0.524,3.846-1.958c2.851-5.761,11.122-19.787,24.056-19.787c16.292,0.007,16.924,13.328,16.924,13.328v15.4
	C364.787,214.168,363.11,215.741,361.124,215.587z M365.215,240.305v19.486c0,10.177-7.007,19.096-16.939,21.304
	c-2.57,0.573-5.504,0.914-8.87,0.914c-21.565,0-17.548-27.707-7.609-35.956c7.535-6.254,22.84-8.373,29.813-9.03
	C363.546,236.84,365.215,238.364,365.215,240.305z"/>
<path style="fill:#EB7C0A;" d="M436.806,357.565c5.761,3.121,27.943-25.564,18.719-39.809c-7.668-11.848-39.814,1.425-42.191,3.009
	c-2.381,1.591-2.381,3.488-2.381,3.488s-0.628,4.763,9.833,3.488c10.472-1.266,15.072-2.58,18.244,0.221
	c3.17,2.796,2.061,8.506,0,15.009C436.97,349.472,431.879,354.895,436.806,357.565z"/>
<g>
</g>
<g>
</g>
<g>
</g>
<g>
</g>
<g>
</g>
<g>
</g>
<g>
</g>
<g>
</g>
<g>
</g>
<g>
</g>
<g>
</g>
<g>
</g>
<g>
</g>
<g>
</g>
<g>
</g>
</svg>
