<?xml version="1.0" encoding="UTF-8"?>
<svg width="111px" height="113px" viewBox="0 0 111 113" version="1.1" xmlns="http://www.w3.org/2000/svg" xmlns:xlink="http://www.w3.org/1999/xlink">
    <!-- Generator: Sketch 48.2 (47327) - http://www.bohemiancoding.com/sketch -->
    <title>blues</title>
    <desc>Created with Sketch.</desc>
    <defs></defs>
    <g id="Page-1" stroke="none" stroke-width="1" fill="none" fill-rule="evenodd">
        <g id="blues" fill="#FFFFFF">
            <g id="harmonica" transform="translate(23.000000, 33.000000)">
                <path d="M59.9071546,16.1718526 C59.7028309,15.9682354 59.4299513,15.8507114 59.1463178,15.8507114 L56.9928542,15.8507114 C56.7105649,15.8507114 56.4363411,15.9682354 56.2373944,16.1718526 L55.1606625,17.2650994 C54.9563389,17.4687166 54.8461117,17.7461279 54.8461117,18.039938 L54.8461117,20.2223318 C54.8461117,20.5161419 54.9563389,20.7935532 55.1606625,20.9971705 L56.2373944,22.0917838 C56.4363411,22.2940344 56.7105649,22.4115584 56.9928542,22.4115584 L59.1463178,22.4115584 C59.4299513,22.4115584 59.7028309,22.2940344 59.9071546,22.0917838 L60.9838864,20.9971705 C61.1841773,20.7935532 61.2997815,20.5161419 61.2997815,20.2223318 L61.2997815,18.039938 C61.2997815,17.7461279 61.1841773,17.4687166 60.9838864,17.2650994 L59.9071546,16.1718526 Z M59.1463178,19.7741006 L58.700032,20.2223318 L57.43914,20.2223318 L56.9928542,19.7741006 L56.9928542,18.4936354 L57.43914,18.039938 L58.700032,18.039938 L59.1463178,18.4936354 L59.1463178,19.7741006 Z" id="Fill-1"></path>
                <path d="M8.28586143,16.1718526 C8.08691473,15.9682354 7.81269089,15.8507114 7.53040165,15.8507114 L5.37693798,15.8507114 C5.09330451,15.8507114 4.8204249,15.9682354 4.61610126,16.1718526 L3.53936943,17.2650994 C3.33907849,17.4687166 3.22347432,17.7461279 3.22347432,18.039938 L3.22347432,20.2223318 C3.22347432,20.5161419 3.33907849,20.7935532 3.53936943,20.9971705 L4.61610126,22.0917838 C4.8204249,22.2940344 5.09330451,22.4115584 5.37693798,22.4115584 L7.53040165,22.4115584 C7.81269089,22.4115584 8.08691473,22.2940344 8.28586143,22.0917838 L9.36259327,20.9971705 C9.56691691,20.7935532 9.67714414,20.5161419 9.67714414,20.2223318 L9.67714414,18.039938 C9.67714414,17.7461279 9.56691691,17.4687166 9.36259327,17.2650994 L8.28586143,16.1718526 Z M7.53040165,19.7741006 L7.08411579,20.2223318 L5.82322384,20.2223318 L5.37693798,19.7741006 L5.37693798,18.4936354 L5.82322384,18.039938 L7.08411579,18.039938 L7.53040165,18.4936354 L7.53040165,19.7741006 Z" id="Fill-2"></path>
                <path d="M5.37693798,43.1818802 L10.753876,43.1818802 C11.3466834,43.1818802 11.8306078,42.6967519 11.8306078,42.0872669 L11.8306078,35.5332526 C11.8306078,34.9237675 11.3466834,34.4386393 10.753876,34.4386393 L5.37693798,34.4386393 C4.78413057,34.4386393 4.30020615,34.9237675 4.30020615,35.5332526 L4.30020615,42.0872669 C4.30020615,42.6967519 4.78413057,43.1818802 5.37693798,43.1818802 Z M6.45366982,40.9994864 L9.67714414,40.9994864 L9.67714414,39.9048731 L6.45366982,39.9048731 L6.45366982,40.9994864 Z M6.45366982,37.7156464 L9.67714414,37.7156464 L9.67714414,36.6210331 L6.45366982,36.6210331 L6.45366982,37.7156464 Z" id="Fill-3"></path>
                <path d="M15.0540821,43.1818802 L20.4310201,43.1818802 C21.0251718,43.1818802 21.5077519,42.6967519 21.5077519,42.0872669 L21.5077519,35.5332526 C21.5077519,34.9237675 21.0251718,34.4386393 20.4310201,34.4386393 L15.0540821,34.4386393 C14.4612747,34.4386393 13.9773503,34.9237675 13.9773503,35.5332526 L13.9773503,42.0872669 C13.9773503,42.6967519 14.4612747,43.1818802 15.0540821,43.1818802 Z M16.130814,40.9994864 L19.3542883,40.9994864 L19.3542883,39.9048731 L16.130814,39.9048731 L16.130814,40.9994864 Z M16.130814,37.7156464 L19.3542883,37.7156464 L19.3542883,36.6210331 L16.130814,36.6210331 L16.130814,37.7156464 Z" id="Fill-4"></path>
                <path d="M24.7312263,43.1818802 L30.1081642,43.1818802 C30.7023159,43.1818802 31.1848961,42.6967519 31.1848961,42.0872669 L31.1848961,35.5332526 C31.1848961,34.9237675 30.7023159,34.4386393 30.1081642,34.4386393 L24.7312263,34.4386393 C24.1384188,34.4386393 23.6612156,34.9237675 23.6612156,35.5332526 L23.6612156,42.0872669 C23.6612156,42.6967519 24.1384188,43.1818802 24.7312263,43.1818802 Z M25.8079581,40.9994864 L29.0381536,40.9994864 L29.0381536,39.9048731 L25.8079581,39.9048731 L25.8079581,40.9994864 Z M25.8079581,37.7156464 L29.0381536,37.7156464 L29.0381536,36.6210331 L25.8079581,36.6210331 L25.8079581,37.7156464 Z" id="Fill-5"></path>
                <path d="M34.4150916,43.1818802 L39.7920296,43.1818802 C40.384837,43.1818802 40.8620402,42.6967519 40.8620402,42.0872669 L40.8620402,35.5332526 C40.8620402,34.9237675 40.384837,34.4386393 39.7920296,34.4386393 L34.4150916,34.4386393 C33.8209399,34.4386393 33.3383597,34.9237675 33.3383597,35.5332526 L33.3383597,42.0872669 C33.3383597,42.6967519 33.8209399,43.1818802 34.4150916,43.1818802 Z M35.4851022,40.9994864 L38.7152977,40.9994864 L38.7152977,39.9048731 L35.4851022,39.9048731 L35.4851022,40.9994864 Z M35.4851022,37.7156464 L38.7152977,37.7156464 L38.7152977,36.6210331 L35.4851022,36.6210331 L35.4851022,37.7156464 Z" id="Fill-6"></path>
                <path d="M44.0922357,43.1818802 L49.4691737,43.1818802 C50.0619811,43.1818802 50.5459055,42.6967519 50.5459055,42.0872669 L50.5459055,35.5332526 C50.5459055,34.9237675 50.0619811,34.4386393 49.4691737,34.4386393 L44.0922357,34.4386393 C43.4980841,34.4386393 43.0155039,34.9237675 43.0155039,35.5332526 L43.0155039,42.0872669 C43.0155039,42.6967519 43.4980841,43.1818802 44.0922357,43.1818802 Z M45.1689675,40.9994864 L48.3924419,40.9994864 L48.3924419,39.9048731 L45.1689675,39.9048731 L45.1689675,40.9994864 Z M45.1689675,37.7156464 L48.3924419,37.7156464 L48.3924419,36.6210331 L45.1689675,36.6210331 L45.1689675,37.7156464 Z" id="Fill-7"></path>
                <path d="M53.7693798,43.1818802 L59.1463178,43.1818802 C59.7391252,43.1818802 60.2230497,42.6967519 60.2230497,42.0872669 L60.2230497,35.5332526 C60.2230497,34.9237675 59.7391252,34.4386393 59.1463178,34.4386393 L53.7693798,34.4386393 C53.1765724,34.4386393 52.692648,34.9237675 52.692648,35.5332526 L52.692648,42.0872669 C52.692648,42.6967519 53.1765724,43.1818802 53.7693798,43.1818802 Z M54.8461117,40.9994864 L58.069586,40.9994864 L58.069586,39.9048731 L54.8461117,39.9048731 L54.8461117,40.9994864 Z M54.8461117,37.7156464 L58.069586,37.7156464 L58.069586,36.6210331 L54.8461117,36.6210331 L54.8461117,37.7156464 Z" id="Fill-8"></path>
                <path d="M16.130814,12.5737042 C16.7236214,12.5737042 17.2075458,12.0817432 17.2075458,11.4790909 L17.2075458,7.49693961 C17.2075458,7.28375649 17.380952,7.10747045 17.5906526,7.10747045 L25.8079581,7.10747045 C26.4021097,7.10747045 26.8846899,6.61550942 26.8846899,6.01285714 C26.8846899,5.41020487 26.4021097,4.91824383 25.8079581,4.91824383 L17.5906526,4.91824383 C16.193993,4.91824383 15.0540821,6.07708539 15.0540821,7.49693961 L15.0540821,11.4790909 C15.0540821,12.0817432 15.5380065,12.5737042 16.130814,12.5737042 Z" id="Fill-9"></path>
                <path d="M59.5455555,4.91824383 L53.5744658,4.91824383 C52.9453641,2.41470877 50.7233445,0.546623377 48.0671371,0.546623377 L16.4561187,0.546623377 C13.7999113,0.546623377 11.5778917,2.41470877 10.94879,4.91824383 L4.97770034,4.91824383 C2.23142926,4.91824383 0,7.18673084 0,9.97860974 L0,43.3048705 C0,45.0458659 1.3912827,46.4657201 3.10787016,46.4657201 L61.4153857,46.4657201 C63.1265962,46.4657201 64.5232558,45.0458659 64.5232558,43.3048705 L64.5232558,9.97860974 C64.5232558,7.18673084 62.2918266,4.91824383 59.5455555,4.91824383 Z M16.4561187,2.73585 L48.0671371,2.73585 C50.0256868,2.73585 51.6159162,4.35248864 51.6159162,6.34356429 L51.6159162,22.6889698 C51.6159162,24.3438721 50.2931894,25.6885656 48.6653215,25.6885656 L15.8579344,25.6885656 C14.2300664,25.6885656 12.9073396,24.3438721 12.9073396,22.6889698 L12.9073396,6.34356429 C12.9073396,4.35248864 14.497569,2.73585 16.4561187,2.73585 Z M2.15346366,9.97860974 C2.15346366,8.39340195 3.41838832,7.10747045 4.97770034,7.10747045 L10.753876,7.10747045 L10.753876,22.6889698 C10.753876,25.5505432 13.0431073,27.8777922 15.8579344,27.8777922 L48.6653215,27.8777922 C51.4801485,27.8777922 53.7693798,25.5505432 53.7693798,22.6889698 L53.7693798,7.10747045 L59.5455555,7.10747045 C61.1048675,7.10747045 62.3697922,8.39340195 62.3697922,9.97860974 L62.3697922,31.1547994 L2.15346366,31.1547994 L2.15346366,9.97860974 Z M62.3697922,43.3048705 C62.3697922,43.8391948 61.9450141,44.2764935 61.4153857,44.2764935 L3.10787016,44.2764935 C2.57824176,44.2764935 2.15346366,43.8391948 2.15346366,43.3048705 L2.15346366,33.344026 L62.3697922,33.344026 L62.3697922,43.3048705 Z" id="Fill-10"></path>
            </g>
        </g>
    </g>
</svg>