<?xml version="1.0" encoding="UTF-8"?>
<svg width="111px" height="113px" viewBox="0 0 111 113" version="1.1" xmlns="http://www.w3.org/2000/svg" xmlns:xlink="http://www.w3.org/1999/xlink">
    <!-- Generator: Sketch 48.2 (47327) - http://www.bohemiancoding.com/sketch -->
    <title>classical</title>
    <desc>Created with Sketch.</desc>
    <defs>
        <polygon id="path-1" points="28.2041767 0.0704186341 0 0.0704186341 0 71.82 28.2041767 71.82 28.2041767 0.0704186341"></polygon>
    </defs>
    <g id="Page-1" stroke="none" stroke-width="1" fill="none" fill-rule="evenodd">
        <g id="classical">
            <g id="milo-venus" transform="translate(41.000000, 21.000000)">
                <g id="Group-3">
                    <mask id="mask-2" fill="white">
                        <use xlink:href="#path-1"></use>
                    </mask>
                    <g id="Clip-2"></g>
                    <path d="M28.1044977,71.1624091 C28.1220683,71.1228205 28.1377253,71.082356 28.1505989,71.0413661 C28.1540782,71.031031 28.1568617,71.0201704 28.1594712,71.0098354 C28.1683435,70.9790053 28.175824,70.9476498 28.1819129,70.916119 C28.1846963,70.9031564 28.1873058,70.8900186 28.1893934,70.8763553 C28.1947864,70.8435983 28.1982657,70.8099656 28.2008752,70.7772086 C28.2008752,70.7675742 28.202267,70.7586405 28.2029628,70.749882 C28.2050504,70.70679 28.2043546,70.6629973 28.2015711,70.6192046 C28.2008752,70.6142999 28.2003533,70.6088696 28.1996575,70.6034393 C28.1961781,70.5657776 28.191481,70.5281159 28.1840005,70.4904541 C28.1826087,70.4795936 28.1798253,70.4692585 28.1779116,70.4583979 C28.1704311,70.4247651 28.1615588,70.3913075 28.1505989,70.3583754 C28.1479894,70.3489162 28.14451,70.3392818 28.1419005,70.3296474 C28.1269394,70.2865554 28.1098907,70.2448648 28.0895365,70.2031741 C28.0500461,70.1203184 26.1331068,66.0558319 27.0735709,60.8082423 C27.9373157,55.9849162 28.2981226,52.0975273 28.1330282,48.659101 C28.13442,48.6112794 28.1316365,48.562582 28.1269394,48.5147603 C27.9427086,45.0073168 27.2061335,41.9642508 25.8878137,38.8667068 C23.7132297,33.7580276 24.3356826,27.1001384 24.7481577,22.6942441 C24.7881701,22.2624483 24.8262688,21.8532495 24.8601923,21.4692752 C24.8697605,21.359268 24.8622799,21.2510125 24.8419258,21.1483624 C25.4194953,20.668745 25.8354497,20.0262187 25.959836,19.3276379 C26.2404443,17.7607357 25.7089759,16.1348009 24.5388758,14.9791996 C23.6723475,14.1238409 21.6670332,12.7997254 17.9655432,13.5456023 C14.6220768,14.2189586 13.5102555,12.3789653 12.9210302,10.1318751 C13.6381211,9.16090376 14.9169504,6.90277785 13.7251044,4.32461502 C12.8945873,2.52911502 11.7584106,0.0704186341 8.16356233,0.0704186341 L7.94332046,0.0704186341 C5.83936694,0.0684917561 2.95743425,0.0642876585 1.72748954,1.61279693 C0.607491788,3.02169512 -0.0495805154,7.15046927 0.448486206,9.64472532 C0.706130919,10.9373101 1.24977692,11.8185941 2.06376721,12.2659801 C2.66377843,12.595126 3.2190802,12.843518 3.70897048,13.0624815 C4.05359856,13.2171572 4.34847215,13.349236 4.60124579,13.4792126 C4.65360978,13.517575 4.70927913,13.5517333 4.76912368,13.581162 C4.80513479,13.5990294 4.84045003,13.6147948 4.87646115,13.6317863 C5.59824907,14.0635822 5.88285862,14.5570381 5.93800608,15.8152895 C5.97123372,16.5870918 4.17172196,18.3121731 1.89397569,20.4970777 L1.82873817,20.5592633 C0.0869833603,22.2295162 -0.413866828,25.2505106 0.339757005,29.537464 C0.572872411,30.8601781 0.877314172,32.0063202 1.09198911,32.7343298 C1.09477257,32.7432635 1.09686017,32.7514965 1.09946967,32.7604302 C1.14035185,33.3446246 1.33745615,33.8941352 1.67582142,34.3362661 C1.79672829,34.5236988 1.9325963,34.6296771 2.12291589,34.7172625 C2.12970059,34.7200652 2.1364853,34.7235686 2.14257413,34.7261962 C2.14605347,34.7282982 2.14883693,34.7296996 2.1521423,34.731101 C2.7820758,35.0075204 3.45080387,35.1299647 4.11814021,35.1299647 C5.77900049,35.1299647 7.42681327,34.3690231 8.43529835,33.3283338 C8.44886775,35.3899181 7.26171885,38.4650403 6.04325594,41.0735077 C4.49390833,44.3886138 4.0847386,49.115596 4.01950108,52.5641821 C3.50925669,52.8455063 3.07086055,53.1054597 2.72710231,53.3359844 C2.12569936,53.7397529 1.48341423,54.2351358 1.48341423,55.0036098 C1.48341423,56.5685851 2.34785486,57.3274247 2.97918009,57.8816649 C3.02545524,57.9226548 3.07086055,57.9624186 3.1150481,58.0020072 C3.15923565,58.0443985 3.20411906,58.0855636 3.24969834,58.1244515 C3.47863855,58.337284 3.67435111,58.5529191 3.81021912,58.8314406 C4.0821291,59.5799451 5.10957655,65.5254149 5.95087961,70.8744284 C6.03647124,71.4190342 6.50270205,71.82 7.05034929,71.82 L27.0899238,71.82 L27.0925333,71.82 C27.1088861,71.82 27.1259349,71.8171973 27.1422878,71.8164966 C27.1741237,71.8152704 27.2054377,71.8145697 27.2365777,71.8103656 C27.2584975,71.8070374 27.2800694,71.8016071 27.3019892,71.797403 C27.3284321,71.7919727 27.3548751,71.7877686 27.3807961,71.7809369 C27.4018461,71.774806 27.4222002,71.7672736 27.4432502,71.760442 C27.4696931,71.7508076 27.49631,71.7427497 27.5220571,71.731714 C27.5410195,71.7234809 27.5601558,71.7140217 27.5791182,71.7043873 C27.6057351,71.6914247 27.632178,71.6777614 27.6579251,71.661996 C27.6654057,71.6570912 27.6735821,71.6544637 27.6810627,71.6495589 C27.6967197,71.639399 27.710985,71.6283632 27.7259461,71.6182033 C27.736906,71.610671 27.7476919,71.6031386 27.7584779,71.5949056 C27.8299782,71.5414785 27.8931281,71.4805191 27.9474057,71.4143046 C27.9529727,71.4079984 27.9569739,71.4018675 27.9623669,71.3957365 C27.9848086,71.3663078 28.0065544,71.3368791 28.0263866,71.3060491 C28.0289961,71.3013195 28.0331713,71.2972905 28.0357808,71.2923858 C28.0385643,71.2883568 28.039956,71.2836272 28.0425655,71.2794231 C28.0629196,71.2459655 28.0813601,71.211632 28.097713,71.1767731 C28.0996266,71.1720435 28.1024101,71.1671387 28.1044977,71.1624091 Z M8.05744263,42.028013 C9.70473351,38.502702 10.5569965,35.7977156 10.6629422,33.7580276 C10.7017368,33.0032169 10.637717,32.327233 10.4719267,31.7299008 C11.1378714,31.6649125 11.6775161,31.495172 11.9744773,31.355561 C12.5316927,31.0935056 12.7729846,30.4269809 12.5127303,29.8659091 C12.253172,29.3041365 11.5905328,29.0618754 11.0326215,29.3239308 C11.0176604,29.3307625 9.36967361,29.9671578 8.0602261,28.8614801 C8.04126373,28.845014 8.02212739,28.8313507 8.00246915,28.8169867 C7.29024939,28.1382001 7.05034929,27.3143722 7.05034929,25.8555503 L7.05034929,24.9152339 C7.05034929,24.2960053 6.5515867,23.7944915 5.93661434,23.7944915 C5.32233785,23.7944915 4.82357526,24.2960053 4.82357526,24.9152339 L4.82357526,25.8555503 C4.82357526,28.3646959 5.50709051,29.8618801 7.23788541,31.0674051 C7.23318831,31.289872 7.04565219,31.5403661 6.91378541,31.688035 C6.18399502,32.5071334 4.66996265,33.0990353 3.450108,32.8103539 C3.41340103,32.7001715 3.37060521,32.5680928 3.32433006,32.4188473 C3.329897,32.3655954 3.33737757,32.3114677 3.35164284,32.2540117 C3.40731219,32.0240125 3.58336651,31.6046538 4.13449308,31.376056 C4.70249443,31.1406265 4.97370854,30.4851376 4.73989727,29.9132052 C4.50539013,29.3403969 3.85510253,29.0674809 3.28640532,29.3027352 C3.05120231,29.4006556 2.83165631,29.5202972 2.62776732,29.6579814 C2.53817445,29.2014865 2.4558882,28.7204677 2.38995481,28.2257855 C1.99922555,25.3067404 2.34576726,23.1601983 3.36521224,22.183096 L3.43044976,22.1200345 C6.63317709,19.0484157 8.24097752,17.5067381 8.16286647,15.7168436 C8.13972889,15.1823977 8.07240377,14.7190711 7.97045927,14.3112736 C8.81054457,14.2517156 9.3628889,13.9766975 9.63271129,13.8425167 C10.183142,13.5674987 10.4087768,12.8948431 10.1356491,12.3399022 C9.86304323,11.7849613 9.19501102,11.5584656 8.64405841,11.8329581 C8.30621504,12.0012972 7.52475653,12.3864976 5.86737559,11.6208263 C5.46916576,11.3969581 5.04433903,11.2061972 4.61290156,11.0131591 C4.14058192,10.801728 3.65121353,10.5834653 3.13000924,10.2967108 C2.98526893,10.2173584 2.76781053,9.88348302 2.63194252,9.20259439 C2.19980918,7.03836 2.93568841,3.68068741 3.46646088,3.01276141 C4.02645975,2.30804956 6.7690451,2.31067712 7.94071096,2.31277917 L8.1642582,2.31277917 C10.2382894,2.31277917 10.8329077,3.38167098 11.7067425,5.27018663 C12.6125872,7.22982161 10.9741687,9.00342527 10.9089312,9.07331839 C10.6465893,9.34570888 10.538556,9.73231068 10.622234,10.1024464 C10.9014506,11.3375753 11.3615926,12.9127105 12.4542775,14.1389056 C13.8602766,15.7161429 15.8615897,16.2553184 18.4030695,15.7441702 C20.4010773,15.3411023 22.0264484,15.6380167 22.97996,16.5795594 C23.6138947,17.2057948 23.9164229,18.106873 23.7688991,18.9300003 C23.7193186,19.2099231 23.2558712,19.6697463 22.7176182,19.734034 C22.1950222,19.7977961 21.762193,19.4404478 21.4311343,18.6796813 C21.1844495,18.1123033 20.528073,17.8537513 19.9647688,18.1021434 C19.4012906,18.3498348 19.1445157,19.010754 19.3912005,19.578132 C20.0531439,21.1019422 21.2260275,21.9742924 22.5782708,21.9804234 C22.5633097,22.1454342 22.5476527,22.312372 22.5314738,22.4840393 C22.0977748,27.1159038 21.4434859,34.116602 23.8416172,39.7500928 C24.4191867,41.107666 24.8751535,42.4577068 25.2129968,43.854343 C24.6183786,43.975386 23.7050533,44.2484772 22.2038945,44.7745149 C20.3487133,45.4245735 17.9070904,46.3634886 15.3280338,47.4178412 C12.3481578,48.636504 8.9300597,50.115996 6.28315605,51.4029754 C6.44894633,47.3952442 7.05591622,44.1710517 8.05744263,42.028013 Z M6.14119921,59.0085382 C7.91548579,58.9265583 9.94933072,58.072601 11.8549622,57.1296569 C12.4066106,56.8565658 12.6343331,56.1846108 12.363119,55.6289693 C12.091383,55.0733277 11.4247425,54.8442044 10.87292,55.1171204 C7.53554247,56.7682797 5.49960994,57.1788799 4.64752094,56.3741456 C4.57741235,56.3112593 4.50886947,56.2502999 4.44293608,56.1921432 C4.02837338,55.8281384 3.82448439,55.6358009 3.74776506,55.3464189 C4.62908047,54.6862004 7.92975106,52.9378213 14.5030836,50.1843126 C19.9171019,47.9153261 24.4035297,46.3011278 25.6404331,46.0508088 C25.7218495,46.602947 25.7865651,47.1661209 25.8354497,47.7415567 C23.0620723,48.4587057 19.9511994,50.1186236 16.9767164,51.7820448 C16.4391592,52.0824626 16.2448384,52.7654533 16.5438872,53.3065557 C16.7470803,53.6754653 17.1268497,53.8833929 17.5182748,53.8833929 C17.700418,53.8833929 17.8858665,53.8376734 18.0572237,53.7425557 C20.6253204,52.3068563 23.4983808,50.7618505 25.9393079,50.0366437 C25.9666207,52.9994814 25.609119,56.3508479 24.8819382,60.409904 C24.79913,60.874632 24.7359801,61.3302511 24.6897049,61.7771116 C24.0034062,59.1330846 23.7471532,57.1454223 23.7424561,57.1070599 C23.6662587,56.492561 23.1083474,56.0567362 22.4994639,56.1332858 C21.8891887,56.2107113 21.4563595,56.7710824 21.5330788,57.3848807 C21.5697858,57.6838971 22.3935182,64.1016272 25.1837704,69.5776395 L11.6802996,69.5776395 C11.6796037,69.5455832 11.6796037,69.5147532 11.6789079,69.4818211 C11.6496814,67.0282046 11.6007968,62.9211517 12.4998568,61.110587 C12.7743763,60.5570475 12.551351,59.8829905 12.0016161,59.6065711 C11.4511854,59.329451 10.7824573,59.5540199 10.5079379,60.1075594 C9.36706411,62.4045732 9.41664462,66.5107503 9.45265573,69.5093229 C9.45265573,69.5324454 9.4533516,69.5543418 9.4533516,69.5776395 L8.00038155,69.5776395 C7.50840366,66.4841243 6.66570887,61.3398855 6.14119921,59.0085382 Z" id="Fill-1" fill="#FFFFFF" mask="url(#mask-2)"></path>
                </g>
                <path d="M17.3524845,30.558359 C18.9018321,30.558359 20.3269675,29.9363277 21.2328122,28.7991193 C21.6174526,28.3159984 21.5405593,27.6105859 21.061455,27.2232834 C20.5818288,26.8359809 19.8810908,26.9134064 19.4957545,27.3958266 C18.8379863,28.2215814 17.5400206,28.5274295 16.2665842,28.1572938 C15.6759672,27.9849258 15.0583854,28.3284356 14.887724,28.922965 C14.7172366,29.5176697 15.0576895,30.1397009 15.6481326,30.3113682 C16.2203091,30.4776053 16.7945732,30.558359 17.3524845,30.558359 Z" id="Fill-4" fill="#FFFFFF"></path>
            </g>
        </g>
    </g>
</svg>