<?xml version="1.0" encoding="UTF-8"?>
<svg width="111px" height="113px" viewBox="0 0 111 113" version="1.1" xmlns="http://www.w3.org/2000/svg" xmlns:xlink="http://www.w3.org/1999/xlink">
    <!-- Generator: Sketch 48.2 (47327) - http://www.bohemiancoding.com/sketch -->
    <title>electronic</title>
    <desc>Created with Sketch.</desc>
    <defs>
        <polygon id="path-1" points="0.0078515625 0.00130681818 0.0078515625 66.9090909 33.5032715 66.9090909 66.9986914 66.9090909 66.9986914 0.00130681818 0.0078515625 0.00130681818"></polygon>
    </defs>
    <g id="Page-1" stroke="none" stroke-width="1" fill="none" fill-rule="evenodd">
        <g id="electronic">
            <g id="disco-ball" transform="translate(22.000000, 22.000000)">
                <path d="M9.77022266,63.4176648 L8.37473828,63.4176648 L8.37473828,62.0374034 C8.37473828,61.2675568 7.75027734,60.6438125 6.97938477,60.6438125 C6.20849219,60.6438125 5.58285352,61.2675568 5.58285352,62.0374034 L5.58285352,63.4176648 L4.18736914,63.4176648 C3.41647656,63.4176648 2.79188477,64.0414091 2.79188477,64.8112557 C2.79188477,65.5809716 3.41647656,66.2047159 4.18736914,66.2047159 L5.58285352,66.2047159 L5.58285352,67.5993523 C5.58285352,68.3691989 6.20849219,68.9928125 6.97938477,68.9928125 C7.75027734,68.9928125 8.37473828,68.3691989 8.37473828,67.5993523 L8.37473828,66.2047159 L9.77022266,66.2047159 C10.5411152,66.2047159 11.1667539,65.5809716 11.1667539,64.8112557 C11.1667539,64.0415398 10.5411152,63.4176648 9.77022266,63.4176648" id="Fill-1" fill="#FFFFFF"></path>
                <path d="M18.1450918,4.8803125 C18.9159844,4.8803125 19.541623,4.25552273 19.541623,3.48567614 C19.541623,2.71596023 18.9159844,2.09208523 18.1450918,2.09208523 C17.3741992,2.09208523 16.7496074,2.71582955 16.7496074,3.48567614 C16.7496074,4.25552273 17.3741992,4.8803125 18.1450918,4.8803125" id="Fill-2" fill="#FFFFFF"></path>
                <path d="M51.6454844,7.66749432 C52.416377,7.66749432 53.0420156,7.04375 53.0420156,6.27390341 C53.0420156,5.50405682 52.416377,4.8803125 51.6454844,4.8803125 C50.8745918,4.8803125 50.249084,5.50405682 50.249084,6.27390341 C50.249084,7.04375 50.8745918,7.66749432 51.6454844,7.66749432" id="Fill-3" fill="#FFFFFF"></path>
                <path d="M60.0203535,16.031 C60.7912461,16.031 61.4168848,15.4072557 61.4168848,14.6374091 C61.4168848,13.8676932 60.7912461,13.2438182 60.0203535,13.2438182 C59.2494609,13.2438182 58.6238223,13.8675625 58.6238223,14.6374091 C58.6238223,15.4072557 59.2494609,16.031 60.0203535,16.031" id="Fill-4" fill="#FFFFFF"></path>
                <path d="M62.8113223,52.2731193 C62.0404297,52.2731193 61.4168848,52.8968636 61.4168848,53.6667102 C61.4168848,54.4364261 62.0405605,55.0612159 62.8113223,55.0612159 C63.582084,55.0612159 64.2078535,54.4364261 64.2078535,53.6667102 C64.2078535,52.8968636 63.5822148,52.2731193 62.8113223,52.2731193" id="Fill-5" fill="#FFFFFF"></path>
                <path d="M62.8113223,60.636625 C62.0404297,60.636625 61.4168848,61.2603693 61.4168848,62.0302159 C61.4168848,62.8000625 62.0405605,63.4248523 62.8113223,63.4248523 C63.582084,63.4248523 64.2078535,62.8000625 64.2078535,62.0302159 C64.2078535,61.2603693 63.5822148,60.636625 62.8113223,60.636625" id="Fill-6" fill="#FFFFFF"></path>
                <g id="Group-12">
                    <mask id="mask-2" fill="white">
                        <use xlink:href="#path-1"></use>
                    </mask>
                    <g id="Clip-8"></g>
                    <path d="M54.4364531,61.3339432 C53.6655605,61.3339432 53.0420156,61.9576875 53.0420156,62.7275341 C53.0420156,63.49725 53.6656914,64.1209943 54.4364531,64.1209943 C55.2072148,64.1209943 55.8329844,63.49725 55.8329844,62.7275341 C55.8329844,61.9576875 55.2073457,61.3339432 54.4364531,61.3339432" id="Fill-7" fill="#FFFFFF" mask="url(#mask-2)"></path>
                    <path d="M1.39535352,52.9703068 C0.624591797,52.9703068 0,53.5940511 0,54.3638977 C0,55.1337443 0.624591797,55.7574886 1.39535352,55.7574886 C2.16624609,55.7574886 2.79188477,55.1337443 2.79188477,54.3638977 C2.79188477,53.5940511 2.16624609,52.9703068 1.39535352,52.9703068" id="Fill-9" fill="#FFFFFF" mask="url(#mask-2)"></path>
                    <path d="M1.39535352,11.1529091 L2.79188477,11.1529091 L2.79188477,12.5465 C2.79188477,13.3163466 3.41647656,13.9400909 4.18736914,13.9400909 C4.95826172,13.9400909 5.58285352,13.3163466 5.58285352,12.5465 L5.58285352,11.1529091 L6.97938477,11.1529091 C7.75027734,11.1529091 8.37473828,10.5281193 8.37473828,9.75827273 C8.37473828,8.98842614 7.75014648,8.36468182 6.97938477,8.36468182 L5.58285352,8.36468182 L5.58285352,6.98546591 C5.58285352,6.21561932 4.95826172,5.591875 4.18736914,5.591875 C3.41647656,5.591875 2.79188477,6.21575 2.79188477,6.98546591 L2.79188477,8.36468182 L1.39535352,8.36468182 C0.624591797,8.36468182 0,8.98842614 0,9.75827273 C0,10.5281193 0.624591797,11.1529091 1.39535352,11.1529091" id="Fill-10" fill="#FFFFFF" mask="url(#mask-2)"></path>
                    <path d="M54.8923672,50.1822102 L44.9329219,50.1822102 C46.4091465,46.2588807 47.2802773,42.0391648 47.4335137,37.6368864 L58.5911074,37.6368864 C58.429627,40.9090284 57.7057129,44.0842045 56.4319277,47.0939375 C55.9802012,48.1588636 55.4669707,49.188767 54.8923672,50.1822102 Z M50.4474668,55.9556023 C47.8834082,58.5172273 44.8982441,60.527375 41.5736309,61.9322045 C39.9542461,62.6161932 38.2857891,63.1387898 36.5805605,63.5032614 C39.5064453,60.4200852 41.9416074,56.8672386 43.7592441,52.9701761 L53.0460723,52.9701761 C52.2547656,54.018767 51.389916,55.0162614 50.4474668,55.9556023 Z M10.9683711,55.9556023 C10.0268379,55.0162614 9.16094141,54.0188977 8.37055078,52.9703068 L17.656332,52.9703068 C19.4750156,56.8672386 21.9101777,60.4202159 24.8360625,63.503392 C23.130834,63.1389205 21.4625078,62.6163239 19.8420762,61.9323352 C16.5185098,60.527375 13.5324297,58.5170966 10.9683711,55.9556023 Z M2.82564648,37.6368864 L13.9833711,37.6368864 C14.1356914,42.0392955 15.0065605,46.2588807 16.482916,50.1822102 L6.52451758,50.1822102 C5.94991406,49.188767 5.43576758,48.1588636 4.98391016,47.0939375 C3.70986328,44.0842045 2.9850332,40.9090284 2.82564648,37.6368864 Z M6.52438672,22.3035966 L16.4827852,22.3035966 C15.0065605,26.2281023 14.1355605,30.4475568 13.9832402,34.8487898 L2.82564648,34.8487898 C2.98516406,31.5766477 3.70999414,28.4016023 4.9837793,25.3918693 C5.43563672,24.3270739 5.94991406,23.2969091 6.52438672,22.3035966 Z M10.9683711,16.5302045 C13.5324297,13.9687102 16.5185098,11.9584318 19.842207,10.5546477 C21.4626387,9.86961364 23.1309648,9.34688636 24.8372402,8.98241477 C21.9103086,12.0655909 19.4751465,15.6184375 17.655416,19.5164148 L8.37068164,19.5164148 C9.16094141,18.4669091 10.0268379,17.4694148 10.9683711,16.5302045 Z M29.3118457,5.57658523 C29.3118457,4.80778409 29.9374844,4.18299432 30.7073301,4.18299432 C31.4771758,4.18299432 32.1038613,4.80778409 32.1038613,5.57658523 C32.1038613,5.58782386 32.1017676,5.59801705 32.1017676,5.60821023 C31.6397031,5.58782386 31.174498,5.57658523 30.7073301,5.57658523 C30.2401621,5.57658523 29.7760039,5.58782386 29.3139395,5.60821023 C29.3128926,5.59801705 29.3118457,5.58782386 29.3118457,5.57658523 Z M50.4474668,16.5302045 C51.389916,17.4695455 52.2548965,18.4669091 53.0460723,19.5164148 L43.7592441,19.5164148 C41.9414766,15.6184375 39.5064453,12.0655909 36.5805605,8.98241477 C38.2857891,9.34688636 39.9542461,9.86961364 41.5736309,10.5546477 C44.8981133,11.9584318 47.8834082,13.9687102 50.4474668,16.5302045 Z M32.1038613,34.8487898 L32.1038613,22.3035966 L41.935457,22.3035966 C43.573293,26.3005 44.4810645,30.5118523 44.640582,34.8487898 L32.1038613,34.8487898 Z M32.1038613,50.1822102 L32.1038613,37.6368864 L44.640582,37.6368864 C44.4810645,41.9739545 43.573293,46.1863523 41.935457,50.1822102 L32.1038613,50.1822102 Z M32.1038613,63.9402614 L32.1038613,52.9703068 L40.6556523,52.9703068 C38.9013516,56.4098523 36.6215195,59.5400739 33.8572461,62.3007273 C33.288793,62.8682784 32.7029355,63.4145284 32.1038613,63.9402614 Z M29.3118457,52.9703068 L29.3118457,63.9402614 C28.7118555,63.4145284 28.1270449,62.8682784 27.5587227,62.3007273 C24.7943184,59.5400739 22.5144863,56.4098523 20.7603164,52.9703068 L29.3118457,52.9703068 Z M29.3118457,37.6368864 L29.3118457,50.1822102 L19.48025,50.1822102 C17.8434609,46.1863523 16.9356895,41.9738239 16.775125,37.6368864 L29.3118457,37.6368864 Z M29.3118457,22.3035966 L29.3118457,34.8487898 L16.775125,34.8487898 C16.9356895,30.5118523 17.8424141,26.3005 19.48025,22.3035966 L29.3118457,22.3035966 Z M29.3118457,8.54345455 L29.3118457,19.5164148 L20.7592695,19.5164148 C22.5144863,16.0758239 24.7943184,12.9446875 27.5587227,10.1850795 C28.1270449,9.61648295 28.7118555,9.07023295 29.3118457,8.54345455 Z M32.1038613,8.54436932 C32.7029355,9.07114773 33.288793,9.61635227 33.8571152,10.1850795 C36.6213887,12.9446875 38.9012207,16.0758239 40.6555215,19.5164148 L32.1037305,19.5164148 L32.1037305,8.54436932 L32.1038613,8.54436932 Z M58.5911074,34.8487898 L47.4335137,34.8487898 C47.2801465,30.4475568 46.4091465,26.2281023 44.9329219,22.3035966 L54.8923672,22.3035966 C55.4669707,23.2969091 55.9800703,24.3270739 56.4319277,25.3918693 C57.7057129,28.4016023 58.429627,31.5766477 58.5911074,34.8487898 Z M65.6042539,25.0774489 L64.2078535,25.0774489 L64.2078535,23.6981023 C64.2078535,22.9282557 63.5822148,22.3035966 62.8113223,22.3035966 C62.0404297,22.3035966 61.4168848,22.9283864 61.4168848,23.6981023 L61.4168848,25.0774489 L60.0203535,25.0774489 C59.7892559,25.0774489 59.570459,25.1346875 59.3783574,25.2346591 C55.4281055,14.9825398 46.122957,7.38469886 34.884623,5.85833523 C34.8907734,5.76542045 34.8948301,5.67146023 34.8948301,5.57658523 C34.8948301,3.75631818 33.7293965,2.20852273 32.1038613,1.63378409 L32.1038613,0.00130681818 L29.3118457,0.00130681818 L29.3118457,1.63378409 C27.6853945,2.20852273 26.5199609,3.75631818 26.5199609,5.57658523 C26.5199609,5.67159091 26.5240176,5.76542045 26.5312148,5.85833523 C11.5470312,7.89409659 0,20.7211705 0,36.2434261 C0,53.1796591 13.7482168,66.9090909 30.7073301,66.9090909 C47.668668,66.9090909 61.4168848,53.1795284 61.4168848,36.2434261 C61.4168848,33.3378466 61.0120059,30.5281875 60.2555078,27.8646307 L61.4168848,27.8646307 L61.4168848,29.259267 C61.4168848,30.028983 62.0405605,30.652858 62.8113223,30.652858 C63.582084,30.652858 64.2078535,30.0291136 64.2078535,29.259267 L64.2078535,27.8646307 L65.6042539,27.8646307 C66.3751465,27.8646307 66.9986914,27.2408864 66.9986914,26.4710398 C66.9986914,25.7013239 66.3750156,25.0774489 65.6042539,25.0774489 L65.6042539,25.0774489 Z" id="Fill-11" fill="#FFFFFF" mask="url(#mask-2)"></path>
                </g>
            </g>
        </g>
    </g>
</svg>