<?xml version="1.0" encoding="UTF-8"?>
<svg width="111px" height="113px" viewBox="0 0 111 113" version="1.1" xmlns="http://www.w3.org/2000/svg" xmlns:xlink="http://www.w3.org/1999/xlink">
    <!-- Generator: Sketch 48.2 (47327) - http://www.bohemiancoding.com/sketch -->
    <title>hip hop</title>
    <desc>Created with Sketch.</desc>
    <defs></defs>
    <g id="Page-1" stroke="none" stroke-width="1" fill="none" fill-rule="evenodd">
        <g id="hip-hop" fill="#FFFFFF">
            <g id="boombox" transform="translate(4.000000, 27.000000)">
                <path d="M101.147123,8.56893953 L74.8939101,8.56893953 L74.8939101,1.87255814 C74.8939101,0.932874419 74.1397929,0.170232558 73.2099864,0.170232558 L29.6210599,0.170232558 C28.6912534,0.170232558 27.9371362,0.932874419 27.9371362,1.87255814 L27.9371362,8.56893953 L1.68392371,8.56893953 C0.75439782,8.56893953 0,9.33016279 0,10.2712651 L0,59.297107 C0,60.2382093 0.75439782,60.9994326 1.68392371,60.9994326 L101.147123,60.9994326 C102.078052,60.9994326 102.831046,60.2382093 102.831046,59.297107 L102.831046,10.2712651 C102.831046,9.33016279 102.078052,8.56893953 101.147123,8.56893953 Z M31.3049837,8.56893953 L71.5260627,8.56893953 L71.5260627,3.57488372 L31.3049837,3.57488372 L31.3049837,8.56893953 Z M3.36784741,57.5947814 L99.4631989,57.5947814 L99.4631989,11.9735907 L3.36784741,11.9735907 L3.36784741,57.5947814 Z" id="Fill-1"></path>
                <path d="M29.6210599,13.6759163 L6.17438692,13.6759163 C5.55498365,13.6759163 5.05177112,14.183493 5.05177112,14.8108 L5.05177112,54.7575721 C5.05177112,55.3848791 5.55498365,55.8924558 6.17438692,55.8924558 L29.6210599,55.8924558 C30.2415858,55.8924558 30.7436757,55.3848791 30.7436757,54.7575721 L30.7436757,14.8108 C30.7436757,14.183493 30.2415858,13.6759163 29.6210599,13.6759163 Z M7.29700272,53.6226884 L28.4984441,53.6226884 L28.4984441,15.9456837 L7.29700272,15.9456837 L7.29700272,53.6226884 Z" id="Fill-2"></path>
                <path d="M72.0873706,14.8108 L72.0873706,54.7575721 C72.0873706,55.3848791 72.5905831,55.8924558 73.2099864,55.8924558 L96.6566594,55.8924558 C97.2771853,55.8924558 97.7792752,55.3848791 97.7792752,54.7575721 L97.7792752,14.8108 C97.7792752,14.183493 97.2771853,13.6759163 96.6566594,13.6759163 L73.2099864,13.6759163 C72.5905831,13.6759163 72.0873706,14.183493 72.0873706,14.8108 Z M74.3326022,53.6226884 L95.5340436,53.6226884 L95.5340436,15.9456837 L74.3326022,15.9456837 L74.3326022,53.6226884 Z" id="Fill-3"></path>
                <path d="M17.8981444,52.7150651 C23.468564,52.7150651 28.0016866,48.1335395 28.0016866,42.5011116 C28.0016866,36.8689674 23.468564,32.2871581 17.8981444,32.2871581 C12.3268828,32.2871581 7.79460218,36.8689674 7.79460218,42.5011116 C7.79460218,48.1335395 12.3268828,52.7150651 17.8981444,52.7150651 Z M17.8981444,34.5569256 C22.2308801,34.5569256 25.756455,38.1213116 25.756455,42.5011116 C25.756455,46.8823302 22.2308801,50.4452977 17.8981444,50.4452977 C13.5645668,50.4452977 10.0398338,46.8823302 10.0398338,42.5011116 C10.0398338,38.1213116 13.5645668,34.5569256 17.8981444,34.5569256 Z" id="Fill-4"></path>
                <path d="M17.8981444,46.1418186 C19.8837711,46.1418186 21.498654,44.5081535 21.498654,42.5011116 C21.498654,40.4940698 19.8837711,38.8604047 17.8981444,38.8604047 C15.9116757,38.8604047 14.2967929,40.4940698 14.2967929,42.5011116 C14.2967929,44.5081535 15.9116757,46.1418186 17.8981444,46.1418186 Z M17.8981444,41.1301721 C18.6460872,41.1301721 19.2534223,41.7452791 19.2534223,42.5011116 C19.2534223,43.2569442 18.6460872,43.8720512 17.8981444,43.8720512 C17.1504823,43.8720512 16.5420245,43.2569442 16.5420245,42.5011116 C16.5420245,41.7452791 17.1504823,41.1301721 17.8981444,41.1301721 Z" id="Fill-5"></path>
                <path d="M14.8670817,31.2654791 C18.7664877,31.2654791 21.9392807,28.058014 21.9392807,24.1157116 C21.9392807,20.173693 18.7664877,16.9662279 14.8670817,16.9662279 C10.9673951,16.9662279 7.79460218,20.173693 7.79460218,24.1157116 C7.79460218,28.058014 10.9673951,31.2654791 14.8670817,31.2654791 Z M14.8670817,19.2359953 C17.5288038,19.2359953 19.694049,21.4249023 19.694049,24.1157116 C19.694049,26.8068047 17.5288038,28.9957116 14.8670817,28.9957116 C12.205079,28.9957116 10.0398338,26.8068047 10.0398338,24.1157116 C10.0398338,21.4249023 12.205079,19.2359953 14.8670817,19.2359953 Z" id="Fill-6"></path>
                <path d="M14.8670817,27.5104326 C16.7185559,27.5104326 18.2251063,25.9877023 18.2251063,24.1157116 C18.2251063,22.2440047 16.7185559,20.7212744 14.8670817,20.7212744 C13.015327,20.7212744 11.5079346,22.2440047 11.5079346,24.1157116 C11.5079346,25.9877023 13.015327,27.5104326 14.8670817,27.5104326 Z M14.8670817,22.9910419 C15.4808719,22.9910419 15.9798747,23.495214 15.9798747,24.1157116 C15.9798747,24.736493 15.4808719,25.2406651 14.8670817,25.2406651 C14.2530109,25.2406651 13.7531662,24.736493 13.7531662,24.1157116 C13.7531662,23.495214 14.2530109,22.9910419 14.8670817,22.9910419 Z" id="Fill-7"></path>
                <path d="M84.9340245,32.2871581 C79.3624823,32.2871581 74.8304823,36.8689674 74.8304823,42.5011116 C74.8304823,48.1335395 79.3624823,52.7150651 84.9340245,52.7150651 C90.5044441,52.7150651 95.0375668,48.1335395 95.0375668,42.5011116 C95.0375668,36.8689674 90.5044441,32.2871581 84.9340245,32.2871581 Z M84.9340245,50.4452977 C80.6004469,50.4452977 77.0757139,46.8823302 77.0757139,42.5011116 C77.0757139,38.1213116 80.6004469,34.5569256 84.9340245,34.5569256 C89.2664796,34.5569256 92.7923351,38.1213116 92.7923351,42.5011116 C92.7923351,46.8823302 89.2664796,50.4452977 84.9340245,50.4452977 Z" id="Fill-8"></path>
                <path d="M84.9340245,38.8604047 C82.9486785,38.8604047 81.332673,40.4940698 81.332673,42.5011116 C81.332673,44.5081535 82.9486785,46.1418186 84.9340245,46.1418186 C86.9193706,46.1418186 88.535376,44.5081535 88.535376,42.5011116 C88.535376,40.4940698 86.9193706,38.8604047 84.9340245,38.8604047 Z M84.9340245,43.8720512 C84.1863624,43.8720512 83.5779046,43.2569442 83.5779046,42.5011116 C83.5779046,41.7452791 84.1863624,41.1301721 84.9340245,41.1301721 C85.6816866,41.1301721 86.2901444,41.7452791 86.2901444,42.5011116 C86.2901444,43.2569442 85.6816866,43.8720512 84.9340245,43.8720512 Z" id="Fill-9"></path>
                <path d="M87.9653678,16.9662279 C84.0645586,16.9662279 80.8920463,20.173693 80.8920463,24.1157116 C80.8920463,28.058014 84.0645586,31.2654791 87.9653678,31.2654791 C91.8647738,31.2654791 95.0375668,28.058014 95.0375668,24.1157116 C95.0375668,20.173693 91.8647738,16.9662279 87.9653678,16.9662279 Z M87.9653678,28.9957116 C85.3033651,28.9957116 83.1372779,26.8068047 83.1372779,24.1157116 C83.1372779,21.4249023 85.3033651,19.2359953 87.9653678,19.2359953 C90.6259673,19.2359953 92.7923351,21.4249023 92.7923351,24.1157116 C92.7923351,26.8068047 90.6259673,28.9957116 87.9653678,28.9957116 Z" id="Fill-10"></path>
                <path d="M87.9653678,20.7212744 C86.1124905,20.7212744 84.6062207,22.2440047 84.6062207,24.1157116 C84.6062207,25.9877023 86.1124905,27.5104326 87.9653678,27.5104326 C89.816842,27.5104326 91.3233924,25.9877023 91.3233924,24.1157116 C91.3233924,22.2440047 89.816842,20.7212744 87.9653678,20.7212744 Z M87.9653678,25.2406651 C87.351297,25.2406651 86.8514523,24.736493 86.8514523,24.1157116 C86.8514523,23.495214 87.351297,22.9910419 87.9653678,22.9910419 C88.5780354,22.9910419 89.0781608,23.495214 89.0781608,24.1157116 C89.0781608,24.736493 88.5780354,25.2406651 87.9653678,25.2406651 Z" id="Fill-11"></path>
                <path d="M49.5298093,38.6433581 L33.4536703,38.6433581 C32.834267,38.6433581 32.3310545,39.1509349 32.3310545,39.7782419 L32.3310545,54.7575721 C32.3310545,55.3848791 32.834267,55.8924558 33.4536703,55.8924558 L49.5298093,55.8924558 C50.1503351,55.8924558 50.6524251,55.3848791 50.6524251,54.7575721 L50.6524251,39.7782419 C50.6524251,39.1509349 50.1503351,38.6433581 49.5298093,38.6433581 Z M34.5762861,49.0831535 L48.4071935,49.0831535 L48.4071935,40.9131256 L34.5762861,40.9131256 L34.5762861,49.0831535 Z M38.6853406,53.6226884 L40.3692643,53.6226884 L40.3692643,51.3529209 L38.6853406,51.3529209 L38.6853406,53.6226884 Z M42.6144959,53.6226884 L44.2984196,53.6226884 L44.2984196,51.3529209 L42.6144959,51.3529209 L42.6144959,53.6226884 Z M34.5762861,53.6226884 L36.440109,53.6226884 L36.440109,51.3529209 L34.5762861,51.3529209 L34.5762861,53.6226884 Z M46.5436512,53.6226884 L48.4071935,53.6226884 L48.4071935,51.3529209 L46.5436512,51.3529209 L46.5436512,53.6226884 Z" id="Fill-12"></path>
                <path d="M69.377376,38.6433581 L53.3012371,38.6433581 C52.6807112,38.6433581 52.1786213,39.1509349 52.1786213,39.7782419 L52.1786213,54.7575721 C52.1786213,55.3848791 52.6807112,55.8924558 53.3012371,55.8924558 L69.377376,55.8924558 C69.9979019,55.8924558 70.4999918,55.3848791 70.4999918,54.7575721 L70.4999918,39.7782419 C70.4999918,39.1509349 69.9979019,38.6433581 69.377376,38.6433581 Z M54.4238529,49.0831535 L68.2547602,49.0831535 L68.2547602,40.9131256 L54.4238529,40.9131256 L54.4238529,49.0831535 Z M58.5329074,53.6226884 L60.2168311,53.6226884 L60.2168311,51.3529209 L58.5329074,51.3529209 L58.5329074,53.6226884 Z M62.4620627,53.6226884 L64.1459864,53.6226884 L64.1459864,51.3529209 L62.4620627,51.3529209 L62.4620627,53.6226884 Z M54.4238529,53.6226884 L56.2876757,53.6226884 L56.2876757,51.3529209 L54.4238529,51.3529209 L54.4238529,53.6226884 Z M66.391218,53.6226884 L68.2547602,53.6226884 L68.2547602,51.3529209 L66.391218,51.3529209 L66.391218,53.6226884 Z" id="Fill-13"></path>
                <path d="M38.5733597,46.3602837 C38.8705722,46.3602837 39.1576812,46.2394186 39.3662071,46.0288977 C39.5755749,45.8172419 39.6959755,45.5244419 39.6959755,45.2254 C39.6959755,44.9249395 39.5755749,44.634693 39.3662071,44.4241721 C39.1576812,44.2122326 38.8705722,44.0905163 38.5733597,44.0905163 C38.2775504,44.0905163 37.9879155,44.2122326 37.7785477,44.4241721 C37.5703025,44.6324233 37.4507439,44.9249395 37.4507439,45.2254 C37.4507439,45.5244419 37.5703025,45.8172419 37.7785477,46.0288977 C37.9879155,46.2394186 38.2775504,46.3602837 38.5733597,46.3602837 Z" id="Fill-14"></path>
                <path d="M44.4112425,46.3602837 C44.7050872,46.3602837 44.995564,46.2394186 45.2038093,46.0288977 C45.4123351,45.8172419 45.5338583,45.5244419 45.5338583,45.2254 C45.5338583,44.9249395 45.4123351,44.6324233 45.2038093,44.4219023 C44.995564,44.2102465 44.7050872,44.0905163 44.4112425,44.0905163 C44.1154332,44.0905163 43.8257984,44.2102465 43.6164305,44.4219023 C43.4081853,44.6324233 43.2886267,44.9249395 43.2886267,45.2254 C43.2886267,45.5244419 43.4081853,45.8172419 43.6164305,46.0288977 C43.8257984,46.2394186 44.1154332,46.3602837 44.4112425,46.3602837 Z" id="Fill-15"></path>
                <path d="M58.422049,46.3602837 C58.7158937,46.3602837 59.005248,46.2394186 59.2146158,46.0288977 C59.422861,45.8172419 59.5446649,45.5244419 59.5446649,45.2254 C59.5446649,44.9249395 59.422861,44.634693 59.2146158,44.4241721 C59.005248,44.2102465 58.7158937,44.0905163 58.422049,44.0905163 C58.1248365,44.0905163 57.8354823,44.2102465 57.6272371,44.4241721 C57.4178692,44.634693 57.2994332,44.9249395 57.2994332,45.2254 C57.2994332,45.5244419 57.4178692,45.8172419 57.6272371,46.0288977 C57.8354823,46.2394186 58.1248365,46.3602837 58.422049,46.3602837 Z" id="Fill-16"></path>
                <path d="M64.2588093,46.3602837 C64.5537766,46.3602837 64.8431308,46.2394186 65.051376,46.0288977 C65.2607439,45.8149721 65.3814251,45.5244419 65.3814251,45.2254 C65.3814251,44.9249395 65.2607439,44.634693 65.051376,44.4241721 C64.8431308,44.2122326 64.5537766,44.0905163 64.2588093,44.0905163 C63.9627193,44.0905163 63.6733651,44.2122326 63.4639973,44.4241721 C63.255752,44.634693 63.1361935,44.9249395 63.1361935,45.2254 C63.1361935,45.5244419 63.255752,45.8149721 63.4639973,46.0288977 C63.6733651,46.2394186 63.9627193,46.3602837 64.2588093,46.3602837 Z" id="Fill-17"></path>
                <path d="M69.377376,13.6759163 L33.4536703,13.6759163 C32.834267,13.6759163 32.3310545,14.183493 32.3310545,14.8108 L32.3310545,18.2154512 C32.3310545,18.8416233 32.834267,19.3503349 33.4536703,19.3503349 L69.377376,19.3503349 C69.9979019,19.3503349 70.4999918,18.8416233 70.4999918,18.2154512 L70.4999918,14.8108 C70.4999918,14.183493 69.9979019,13.6759163 69.377376,13.6759163 Z M34.5762861,17.0805674 L68.2547602,17.0805674 L68.2547602,15.9456837 L34.5762861,15.9456837 L34.5762861,17.0805674 Z" id="Fill-18"></path>
                <path d="M62.137346,20.7110605 L40.6937003,20.7110605 C40.074297,20.7110605 39.5710845,21.2197721 39.5710845,21.8459442 L39.5710845,25.2505953 C39.5710845,25.8779023 40.074297,26.3854791 40.6937003,26.3854791 L62.137346,26.3854791 C62.7578719,26.3854791 63.2599619,25.8779023 63.2599619,25.2505953 L63.2599619,21.8459442 C63.2599619,21.2197721 62.7578719,20.7110605 62.137346,20.7110605 Z M41.8163161,24.1157116 L61.0147302,24.1157116 L61.0147302,22.9808279 L41.8163161,22.9808279 L41.8163161,24.1157116 Z" id="Fill-19"></path>
                <path d="M36.8818583,32.2871581 C36.8818583,34.3520791 38.543891,36.0319907 40.5862098,36.0319907 C42.6288093,36.0319907 44.2905613,34.3520791 44.2905613,32.2871581 C44.2905613,30.2225209 42.6288093,28.5423256 40.5862098,28.5423256 C38.543891,28.5423256 36.8818583,30.2225209 36.8818583,32.2871581 Z M40.5862098,30.812093 C41.3908447,30.812093 42.0453297,31.4737302 42.0453297,32.2871581 C42.0453297,33.100586 41.3908447,33.7622233 40.5862098,33.7622233 C39.7815749,33.7622233 39.1270899,33.100586 39.1270899,32.2871581 C39.1270899,31.4737302 39.7815749,30.812093 40.5862098,30.812093 Z" id="Fill-20"></path>
                <path d="M55.1198747,32.2871581 C55.1198747,30.2225209 53.4581226,28.5423256 51.4155232,28.5423256 C49.3732044,28.5423256 47.7111717,30.2225209 47.7111717,32.2871581 C47.7111717,34.3520791 49.3732044,36.0319907 51.4155232,36.0319907 C53.4581226,36.0319907 55.1198747,34.3520791 55.1198747,32.2871581 Z M51.4155232,33.7622233 C50.6108883,33.7622233 49.9564033,33.100586 49.9564033,32.2871581 C49.9564033,31.4737302 50.6108883,30.812093 51.4155232,30.812093 C52.220158,30.812093 52.8746431,31.4737302 52.8746431,32.2871581 C52.8746431,33.100586 52.220158,33.7622233 51.4155232,33.7622233 Z" id="Fill-21"></path>
                <path d="M58.540485,32.2871581 C58.540485,34.3520791 60.2025177,36.0319907 62.2448365,36.0319907 C64.2871553,36.0319907 65.949188,34.3520791 65.949188,32.2871581 C65.949188,30.2225209 64.2871553,28.5423256 62.2448365,28.5423256 C60.2025177,28.5423256 58.540485,30.2225209 58.540485,32.2871581 Z M63.7039564,32.2871581 C63.7039564,33.100586 63.0494714,33.7622233 62.2448365,33.7622233 C61.4402016,33.7622233 60.7857166,33.100586 60.7857166,32.2871581 C60.7857166,31.4737302 61.4402016,30.812093 62.2448365,30.812093 C63.0494714,30.812093 63.7039564,31.4737302 63.7039564,32.2871581 Z" id="Fill-22"></path>
            </g>
        </g>
    </g>
</svg>