<?xml version="1.0" encoding="UTF-8"?>
<svg width="111px" height="113px" viewBox="0 0 111 113" version="1.1" xmlns="http://www.w3.org/2000/svg" xmlns:xlink="http://www.w3.org/1999/xlink">
    <!-- Generator: Sketch 48.2 (47327) - http://www.bohemiancoding.com/sketch -->
    <title>jazz</title>
    <desc>Created with Sketch.</desc>
    <defs></defs>
    <g id="Page-1" stroke="none" stroke-width="1" fill="none" fill-rule="evenodd">
        <g id="jazz" fill="#FFFFFF" fill-rule="nonzero">
            <g id="trumpet" transform="translate(18.000000, 19.000000)">
                <g id="Capa_1">
                    <path d="M74.5407273,18.2760276 L56.6019805,0.349945609 C56.2174878,-0.0344349383 55.6215479,-0.111183664 55.1516477,0.164602213 C54.6825442,0.439910401 54.458509,0.997214426 54.6071753,1.52044329 C56.4703639,8.08245934 54.6266151,15.1579912 49.7953591,19.9858364 L39.7958382,29.9782975 C39.7940855,29.9800491 37.5441733,32.2283727 37.5441733,32.2283727 L37.2540112,31.9384154 C36.7872978,31.4721908 36.0305816,31.4721908 35.5640276,31.9384154 L34.7062885,32.795549 L33.0239533,31.1142424 L33.6562233,30.4824188 C34.1229366,30.0158758 34.1229366,29.259853 33.6562233,28.7934692 C33.1895099,28.3272446 32.4327937,28.3272446 31.9662397,28.7934692 L29.0113976,31.7462251 C28.5446843,32.2127682 28.5446843,32.9687909 29.0113976,33.4351748 C29.2446746,33.6682871 29.5506117,33.7848433 29.8563894,33.7848433 C30.1621671,33.7848433 30.4681042,33.6682871 30.7013812,33.4351748 L31.3338104,32.803192 L33.0161456,34.4843394 L32.1584064,35.341473 C31.6916931,35.8080161 31.6916931,36.5640388 32.1584064,37.0304227 L32.4484092,37.3202208 L31.3005079,38.4673117 L31.0103457,38.1773544 C30.5436324,37.7111297 29.7869162,37.7111297 29.3203622,38.1773544 L28.462623,39.0344879 L26.7802879,37.3531813 L27.4125578,36.7213578 C27.8792712,36.2549739 27.8792712,35.498792 27.4125578,35.0325674 C26.9458445,34.5660243 26.1891283,34.5661835 25.7225743,35.0324081 L22.7677322,37.9850048 C22.3010188,38.4513887 22.3010188,39.2075706 22.7677322,39.6737953 C23.0010092,39.9070668 23.3069463,40.023623 23.612724,40.023623 C23.9185017,40.023623 24.2244387,39.9070668 24.4577157,39.6739545 L25.090145,39.042131 L26.7724801,40.7232784 L25.914741,41.580412 C25.4480276,42.046955 25.4480276,42.8029778 25.914741,43.2693616 L26.2049032,43.5591597 L25.0571612,44.7060914 L24.766999,44.4161341 C24.5429638,44.1922571 24.2389389,44.0664656 23.9220072,44.0664656 C23.6050755,44.0664656 23.3010506,44.1922571 23.0770154,44.4161341 L22.2192763,45.2732677 L20.5369412,43.5921203 L21.1693704,42.9601375 C21.6360838,42.4935944 21.6360838,41.7375717 21.1693704,41.2711878 C20.7026571,40.8049632 19.9459409,40.8049632 19.4793869,41.2711878 L16.5245448,44.2239438 C16.0578314,44.6904869 16.0578314,45.4465096 16.5245448,45.9128934 C16.7578218,46.1460058 17.0637588,46.2625619 17.3695366,46.2625619 C17.6753143,46.2625619 17.9812513,46.1460058 18.2145283,45.9128934 L18.8469576,45.2809107 L20.5292927,46.9622173 L19.6715536,47.8193509 C19.2048402,48.285894 19.2048402,49.0419167 19.6715536,49.5083006 L19.9617157,49.7980986 L2.33018075,67.4175042 L2.04001857,67.1275469 C1.57330522,66.6613223 0.816589027,66.6613223 0.350035015,67.1275469 C-0.116678338,67.59409 -0.116678338,68.3501127 0.350035015,68.8164966 L6.02580479,74.4882592 C6.25908179,74.7213715 6.56501885,74.8379277 6.87079656,74.8379277 C7.17657428,74.8379277 7.48251134,74.7213715 7.71578834,74.4882592 C8.1825017,74.0217161 8.1825017,73.2656934 7.71578834,72.7993096 L7.42578551,72.5095115 L15.3309122,64.6099658 C15.8956211,65.903548 16.7001399,67.0872618 17.711485,68.0977336 C19.8565499,70.2412841 22.7087756,71.4219725 25.742492,71.4219725 C28.7762085,71.4219725 31.6282749,70.2412841 33.7734991,68.0977336 L36.0238893,65.8489322 L37.4492054,67.2732421 C37.6733999,67.4971191 37.9772655,67.6229106 38.2941972,67.6229106 C38.6111288,67.6229106 38.9149944,67.4971191 39.1393483,67.2732421 L42.5449695,63.8700253 C42.7690046,63.645989 42.894885,63.342338 42.894885,63.0254708 C42.894885,62.7086037 42.7690046,62.4051118 42.5449695,62.1809164 L41.1198127,60.7567658 L42.2673953,59.6099933 L43.6925521,61.0341439 C43.9259885,61.2672562 44.2319255,61.3838124 44.5377033,61.3838124 C44.843481,61.3838124 45.149418,61.2672562 45.3828544,61.0341439 L48.7883162,57.6310863 C49.2550296,57.1645432 49.2550296,56.4085205 48.7883162,55.9421367 L47.3631594,54.517986 L48.5109014,53.3710544 L49.9360582,54.795205 C50.1694946,55.0283173 50.4754316,55.1448735 50.7812093,55.1448735 C51.0869871,55.1448735 51.3929241,55.0283173 51.6263605,54.795205 L55.0318223,51.3921474 C55.4985357,50.9256043 55.4985357,50.1695816 55.0318223,49.7031977 L53.6065062,48.2790471 L55.8568963,46.0300865 C60.2850165,41.6049333 60.2850165,34.4045653 55.8568963,29.9795714 C54.8356721,28.9590681 53.6530341,28.1597349 52.3679391,27.5992463 L54.8911232,25.0778436 C59.7223792,20.2498393 66.8029099,18.4077106 73.3694027,20.2694245 C73.8934792,20.4186228 74.450699,20.1941089 74.726361,19.7253366 C75.0017044,19.2562458 74.9253794,18.6605674 74.5407273,18.2760276 Z M53.2009803,23.3887348 L49.7649247,26.8222052 C49.1302646,26.7137698 48.4826979,26.655014 47.8257299,26.655014 C47.348978,26.655014 46.877325,26.6874969 46.4115677,26.7449788 L51.4856613,21.6744676 C55.9850075,17.1781387 58.1847268,10.9516197 57.6263917,4.75121434 L70.1361898,17.2521805 C63.9306071,16.694558 57.7001671,18.8927243 53.2009803,23.3887348 Z M19.4014685,66.4087839 C18.3735519,65.3817522 17.6155609,64.1294105 17.185337,62.7568503 L19.2351152,60.7083599 C19.3762924,62.1645157 20.0034634,63.5819787 21.1169468,64.6948352 C22.3921626,65.9691507 24.067168,66.6062288 25.7421734,66.6062288 C27.4171787,66.6062288 29.0925028,65.9689915 30.3678779,64.694676 L32.6182681,62.4458746 L34.3337464,64.1601418 L32.0833562,66.4087839 C30.3897078,68.1013959 28.1377242,69.0335267 25.742492,69.0335267 C23.3472598,69.0335267 21.0952763,68.1013959 19.4014685,66.4087839 Z M4.02032364,69.1064539 L21.652018,51.4873668 L23.367337,53.2014747 L21.1186996,55.4485245 C21.1171062,55.4499576 5.73564261,70.8205618 5.73564261,70.8205618 L4.02032364,69.1064539 Z M22.8070897,57.1390665 L25.0574799,54.8902651 L30.9282845,60.756925 L28.6780537,63.0057263 C27.0594555,64.6231818 24.4255286,64.6235003 22.8072491,63.0060448 C21.1884915,61.3884301 21.1884915,58.7563628 22.8070897,57.1390665 Z M36.8696777,63.3163835 C36.8680843,63.3149505 22.2068476,48.6639053 22.2068476,48.6639053 L23.9223259,46.9494789 L40.0096755,63.0254708 L38.2940378,64.7398972 L36.8696777,63.3163835 Z M36.3964314,43.5593189 L37.5443327,42.4123872 L43.4151373,48.2790471 L42.2673953,49.4259788 L36.3964314,43.5593189 Z M35.8541898,40.7232784 L34.7062885,41.8703693 L32.9909695,40.1562613 L34.1388708,39.0091704 L35.8541898,40.7232784 Z M30.153244,49.7980986 L31.3009859,48.6513262 L37.1716312,54.5178268 L36.0240486,55.6647585 L30.153244,49.7980986 Z M29.6106837,46.9623765 L28.4629417,48.1093082 L26.7476227,46.395041 L27.8953647,45.2481094 L29.6106837,46.9623765 Z M37.7141915,57.3537081 L38.8617741,56.2069357 L40.5770931,57.9210436 L39.4295105,59.0678161 L37.7141915,57.3537081 Z M28.4503537,42.4249664 L30.165832,40.7106992 L30.4551975,40.9998604 C30.4563129,41.0008158 46.2531816,56.7866911 46.2531816,56.7866911 L44.5375439,58.5009583 L28.4503537,42.4249664 Z M43.9575382,51.1149284 L45.1052802,49.9679968 L46.8205992,51.6821047 L45.6728572,52.8290364 L43.9575382,51.1149284 Z M34.6937004,36.1858682 L36.4091787,34.471601 L52.4965283,50.5475929 L50.78105,52.2618601 L34.6937004,36.1858682 Z M42.6399375,37.3202208 L44.8903276,35.0714194 C46.5090852,33.4538047 49.1428527,33.4541231 50.7612916,35.0714194 C52.3798898,36.6887157 52.3797305,39.3206238 50.7611322,40.9380793 L48.5107421,43.1868806 L42.6399375,37.3202208 Z M50.200885,44.8758303 L52.4512751,42.6268697 C55.0017067,40.0780795 55.0017067,35.9309414 52.4514345,33.3823105 C51.2174883,32.1493948 49.5746701,31.47028 47.8257299,31.47028 C46.0767897,31.47028 44.4341308,32.1493948 43.2001847,33.3823105 L40.9497946,35.6311119 L39.2344756,33.9170039 L41.4848657,31.6682026 C43.1785141,29.9755906 45.4304977,29.0434598 47.8257299,29.0434598 C50.2209621,29.0434598 52.4729457,29.9755906 54.1665941,31.6682026 C57.662881,35.1618619 57.662881,40.8471591 54.1665941,44.3409776 L51.916204,46.589779 L50.200885,44.8758303 Z" id="Shape"></path>
                </g>
            </g>
        </g>
    </g>
</svg>