<?xml version="1.0" encoding="UTF-8"?>
<svg width="111px" height="113px" viewBox="0 0 111 113" version="1.1" xmlns="http://www.w3.org/2000/svg" xmlns:xlink="http://www.w3.org/1999/xlink">
    <!-- Generator: Sketch 48.2 (47327) - http://www.bohemiancoding.com/sketch -->
    <title>metal</title>
    <desc>Created with Sketch.</desc>
    <defs></defs>
    <g id="Page-1" stroke="none" stroke-width="1" fill="none" fill-rule="evenodd">
        <g id="metal" fill="#FFFFFF">
            <g id="006-electric-guitar" transform="translate(20.000000, 22.000000)">
                <path d="M72.8288951,0.817017544 C72.6034854,0.316666667 72.0492195,0.0445614035 71.5081293,0.169298246 L56.4428878,3.64385965 C55.8391244,3.78298246 55.454539,4.3654386 55.5693805,4.96578947 L55.9073171,6.72298246 L39.898239,29.2859649 L0.501385366,55.9792982 C0.0703292683,56.2712281 -0.107719512,56.8119298 0.0660560976,57.2985965 C0.240721951,57.784386 0.723946341,58.0942105 1.24562927,58.0550877 L26.5730683,56.1342105 L34.6180244,69.4429825 C34.8286561,69.7917544 35.2084341,70 35.6118927,70 C35.6695805,70 35.7279805,69.9959649 35.7856683,69.9870175 C36.251622,69.917193 36.6273049,69.5764912 36.737161,69.125614 L45.5560951,32.8598246 L61.1229,9.93701754 L72.430422,2.21701754 C72.8872951,1.9045614 73.0550171,1.31719298 72.8288951,0.817017544 Z M35.1500341,65.8677193 L28.1943805,54.36 C27.9696829,53.9878947 27.5494878,53.7726316 27.1114878,53.8063158 L5.35677561,55.4564912 L36.1180854,34.6149123 L34.2291659,37.2773684 C34.0525415,37.5261404 33.9843488,37.8338596 34.0386537,38.1326316 C34.0934927,38.4314035 34.2667341,38.6966667 34.5206317,38.8685965 L38.3132488,41.4466667 C38.5078561,41.5789474 38.737361,41.6482456 38.9704268,41.6482456 C39.0427146,41.6482456 39.1151805,41.6414035 39.1874683,41.6284211 C39.4913976,41.5707018 39.7598951,41.3959649 39.9315341,41.1424561 L41.8582,38.3059649 L35.1500341,65.8677193 Z M38.6616902,38.9131579 L36.7928902,37.6433333 L57.4235805,8.56438596 L58.6871927,9.42298246 L38.6616902,38.9131579 Z M60.2812634,7.73719298 L58.1829585,6.31035088 L58.049422,5.61473684 L66.1137854,3.75561404 L60.2812634,7.73719298 Z" id="Fill-1"></path>
                <path d="M31.7678195,50.774386 L27.9744902,48.1963158 C27.4487122,47.8385965 26.7281488,47.9694737 26.3651073,48.4875439 C26.002778,49.005614 26.1348902,49.715614 26.6606683,50.0733333 L30.4539976,52.6508772 C30.6543024,52.787193 30.8830951,52.8529825 31.1099293,52.8529825 C31.4770659,52.8529825 31.8386829,52.6803509 32.0633805,52.3601754 C32.4257098,51.8421053 32.2935976,51.1321053 31.7678195,50.774386 Z" id="Fill-4"></path>
                <path d="M35.145939,45.9587719 L31.3526098,43.3807018 C30.8261195,43.0236842 30.1055561,43.1538596 29.7432268,43.6719298 C29.3808976,44.19 29.5130098,44.9 30.0387878,45.2577193 L33.8321171,47.8352632 C34.032422,47.9715789 34.2612146,48.0373684 34.4878707,48.0373684 C34.8551854,48.0373684 35.2168024,47.8645614 35.4415,47.5445614 C35.8045415,47.0257895 35.6717171,46.3157895 35.145939,45.9587719 Z" id="Fill-5"></path>
                <path d="M34.9657537,57.637193 C34.9657537,58.2642105 34.4495902,58.7733333 33.8125317,58.7733333 C33.1761854,58.7733333 32.6602,58.2642105 32.6602,57.637193 C32.6602,57.0092982 33.1761854,56.5008772 33.8125317,56.5008772 C34.4495902,56.5008772 34.9657537,57.0092982 34.9657537,57.637193 Z" id="Fill-6"></path>
                <path d="M36.047222,54.2168421 C36.047222,54.8445614 35.5312366,55.3529825 34.894,55.3529825 C34.2576537,55.3529825 33.7416683,54.8445614 33.7416683,54.2168421 C33.7416683,53.5896491 34.2576537,53.0805263 34.894,53.0805263 C35.5312366,53.0805263 36.047222,53.5896491 36.047222,54.2168421 Z" id="Fill-7"></path>
            </g>
        </g>
    </g>
</svg>