<?xml version="1.0" encoding="UTF-8"?>
<svg width="111px" height="113px" viewBox="0 0 111 113" version="1.1" xmlns="http://www.w3.org/2000/svg" xmlns:xlink="http://www.w3.org/1999/xlink">
    <!-- Generator: Sketch 48.2 (47327) - http://www.bohemiancoding.com/sketch -->
    <title>pop</title>
    <desc>Created with Sketch.</desc>
    <defs>
        <polygon id="path-1" points="0.00819277108 70 33.9586265 70 33.9586265 0.00013671875 0.00819277108 0.00013671875"></polygon>
    </defs>
    <g id="Page-1" stroke="none" stroke-width="1" fill="none" fill-rule="evenodd">
        <g id="pop">
            <g id="microphone" transform="translate(39.000000, 21.000000)">
                <mask id="mask-2" fill="white">
                    <use xlink:href="#path-1"></use>
                </mask>
                <g id="Clip-2"></g>
                <path d="M18.0023855,56.6652734 C18.0023855,57.2300586 17.5434538,57.6895703 16.9795181,57.6895703 C16.4153092,57.6895703 15.9565141,57.2300586 15.9565141,56.6652734 C15.9565141,56.100625 16.4153092,55.6409766 16.9795181,55.6409766 C17.5433173,55.6408398 18.0023855,56.1003516 18.0023855,56.6652734 Z M13.8008594,56.6652734 C13.8008594,58.4201953 15.2268112,59.8478125 16.9793815,59.8478125 C18.7319518,59.8478125 20.1577671,58.4201953 20.1577671,56.6652734 C20.1577671,54.9103516 18.7319518,53.4827344 16.9793815,53.4827344 C15.2268112,53.4827344 13.8008594,54.9103516 13.8008594,56.6652734 L13.8008594,56.6652734 Z" id="Fill-1" fill="#FFFFFF" mask="url(#mask-2)"></path>
                <path d="M2.15551807,20.0597852 L31.8029719,20.0597852 L31.8029719,17.7228516 L2.15551807,17.7228516 L2.15551807,20.0597852 Z M3.96516466,15.1889062 C3.96516466,14.9478711 3.97212851,14.7084766 3.98523695,14.4704492 L4.47284337,13.9823633 L6.05309237,15.5646094 L3.97076305,15.5646094 C3.96693976,15.4391016 3.96516466,15.3137305 3.96516466,15.1889062 Z M17.6967952,2.17847656 L18.581751,3.06455078 L16.9793815,4.66894531 L15.3768755,3.06455078 L16.2618313,2.17847656 C16.4995582,2.16548828 16.7386506,2.15837891 16.9795181,2.15837891 C17.220249,2.15837891 17.4593414,2.16548828 17.6967952,2.17847656 Z M27.9056707,15.5646094 L29.4859197,13.9823633 L29.9733896,14.4704492 C29.9863614,14.7083398 29.9935984,14.9477344 29.9935984,15.1889062 C29.9935984,15.3135937 29.9916867,15.4389648 29.9881365,15.5646094 L27.9056707,15.5646094 Z M7.59947791,10.8516406 L9.20184739,12.4561719 L7.59947791,14.0605664 L5.99710843,12.4563086 L7.59947791,10.8516406 Z M13.852747,7.79953125 L12.250241,6.19513672 L13.852747,4.59074219 L15.4551165,6.19513672 L13.852747,7.79953125 Z M18.581751,9.32572266 L16.9793815,10.9301172 L15.3768755,9.32572266 L16.9793815,7.72146484 L18.581751,9.32572266 Z M21.7083855,6.19513672 L20.1060161,7.79953125 L18.50351,6.19513672 L20.1060161,4.59074219 L21.7083855,6.19513672 Z M29.1614859,10.6054102 L27.8834137,9.32572266 L28.3506747,8.85787109 C28.662,9.41650391 28.9335904,10.0001562 29.1614859,10.6054102 Z M24.7567791,12.4563086 L26.3592851,10.8519141 L27.9616546,12.4563086 L26.3592851,14.0607031 L24.7567791,12.4563086 Z M12.3062249,15.5646094 L9.14586345,15.5646094 L10.7261124,13.9823633 L12.3062249,15.5646094 Z M18.5596305,15.5646094 L15.3992691,15.5646094 L16.9793815,13.9823633 L18.5596305,15.5646094 Z M23.2326506,13.9825 L24.8127631,15.5647461 L21.6525382,15.5647461 L23.2326506,13.9825 Z M21.6301446,9.32572266 L23.2326506,7.72132813 L24.8350201,9.32572266 L23.2326506,10.9301172 L21.6301446,9.32572266 Z M21.7083855,12.4563086 L20.1060161,14.0607031 L18.50351,12.4563086 L20.1060161,10.8519141 L21.7083855,12.4563086 Z M10.7261124,10.9299805 L9.12360643,9.32558594 L10.7261124,7.72105469 L12.3284819,9.32558594 L10.7261124,10.9299805 Z M13.852747,10.8519141 L15.4551165,12.4563086 L13.852747,14.0607031 L12.250241,12.4563086 L13.852747,10.8519141 Z M27.1227149,7.03513672 L26.3592851,7.79953125 L24.7567791,6.19513672 L25.554755,5.39615234 C26.1234699,5.89585938 26.6480803,6.44451172 27.1227149,7.03513672 Z M21.6629157,3.03173828 C22.4122811,3.32212891 23.1280562,3.67992187 23.8031406,4.09773437 L23.2327871,4.66880859 L21.6301446,3.06455078 L21.6629157,3.03173828 Z M12.2957108,3.03173828 L12.3283454,3.06455078 L10.7259759,4.66894531 L10.1556225,4.09787109 C10.8308434,3.67992187 11.5466185,3.32212891 12.2957108,3.03173828 Z M8.40387149,5.39615234 L9.20184739,6.19513672 L7.59947791,7.79953125 L6.83591165,7.03513672 C7.31068273,6.44451172 7.83529317,5.89585938 8.40387149,5.39615234 Z M5.60808835,8.85787109 L6.07521285,9.32558594 L4.79714056,10.6054102 C5.02503614,10.0001562 5.29662651,9.41650391 5.60808835,8.85787109 Z M32.8808675,22.2178906 C33.4763454,22.2178906 33.9586265,21.7348633 33.9586265,21.1389063 L33.9586265,16.6437305 C33.9586265,16.0477734 33.4763454,15.5646094 32.8808675,15.5646094 L32.1442008,15.5646094 C32.1473414,15.4389648 32.1491165,15.3137305 32.1491165,15.1889063 C32.1491165,14.7556445 32.1298635,14.3268945 32.0942249,13.9029297 C32.0934056,13.895 32.0928594,13.887207 32.0920402,13.8794141 C32.0120241,12.9449414 31.8472129,12.0345313 31.6051165,11.1557031 C31.597743,11.1215234 31.5884578,11.0877539 31.5776707,11.0541211 C31.1240643,9.45068359 30.4129317,7.95470703 29.492747,6.61294922 C29.4579277,6.54992188 29.4164177,6.48962891 29.3682169,6.43302734 C28.4892691,5.19011719 27.4283052,4.08515625 26.2253333,3.15615234 C26.1700321,3.10365234 26.110498,3.05853516 26.0478233,3.01998047 C24.7694779,2.06253906 23.335743,1.30238281 21.7922249,0.783945313 C21.7492129,0.766445313 21.7049719,0.752773438 21.6601847,0.741015625 C20.5824257,0.390195313 19.4522329,0.156953125 18.2847631,0.0570117188 C18.2791647,0.056328125 18.2735663,0.0559179688 18.2676948,0.0555078125 C17.8428996,0.0195507813 17.4133253,0.00013671875 16.9793815,0.00013671875 C16.5453012,0.00013671875 16.116,0.0195507813 15.6912048,0.0553710938 C15.6854699,0.05578125 15.6795984,0.056328125 15.6738635,0.0570117188 C14.5063936,0.157089844 13.3763373,0.390058594 12.2987149,0.740878906 C12.2539277,0.752636719 12.2095502,0.766308594 12.1662651,0.783945313 C10.6228835,1.30238281 9.18914859,2.06240234 7.91093976,3.01984375 C7.84826506,3.05839844 7.78873092,3.10365234 7.73329317,3.15615234 C6.53032129,4.08515625 5.46949398,5.18998047 4.59081928,6.43261719 C4.54220884,6.48949219 4.5004257,6.54992188 4.46560643,6.61322266 C3.54583133,7.95484375 2.83483534,9.45041016 2.38109237,11.0535742 C2.37003213,11.0876172 2.36074699,11.1220703 2.3531004,11.1569336 C2.11141365,12.0349414 1.94673896,12.944668 1.86672289,13.878457 C1.86576707,13.8869336 1.86508434,13.8955469 1.86440161,13.9040234 C1.82876305,14.3277148 1.80964659,14.755918 1.80964659,15.1887695 C1.80964659,15.3135938 1.81128514,15.4388281 1.81456225,15.5644727 L1.07775904,15.5644727 C0.482554217,15.5644727 0,16.0476367 0,16.6435938 L0,21.1386328 C0,21.7345898 0.482554217,22.2177539 1.07775904,22.2177539 L2.33548594,22.2177539 C2.41905221,23.2806055 2.65814458,24.3203516 3.05494779,25.3177148 C3.27506024,25.8716992 3.90221687,26.1414453 4.45481928,25.9210547 C5.00796787,25.7006641 5.27764659,25.0729883 5.05739759,24.5192773 C4.76218474,23.7773047 4.57470683,23.0060742 4.49673896,22.2177539 L29.461751,22.2177539 C29.1625783,25.2477148 27.2682731,27.8135156 24.6348434,29.0646289 C23.5038313,29.6013867 22.2571647,29.8827539 21.0054458,29.8827539 L12.9531807,29.8827539 C11.6598153,29.8827539 10.3529317,29.578418 9.19310843,29.0044727 C8.50655422,28.6648633 7.86328514,28.2311914 7.28296386,27.7101563 C6.83987149,27.312168 6.15836948,27.3496289 5.76115663,27.7932813 C5.36367068,28.2369336 5.40081124,28.9191602 5.84404016,29.3171484 C6.41453012,29.8292969 7.03431325,30.2721289 7.68987149,30.6456445 L11.5008755,69.0276563 C11.5556305,69.5795898 12.0193414,70 12.5733092,70 L21.3850442,70 C21.9388755,70 22.4027229,69.5795898 22.4574779,69.0276563 L22.7316627,66.2653906 C22.7906506,65.6723047 22.3580723,65.1438867 21.7658715,65.0848242 C21.1712129,65.0250781 20.6453735,65.4588867 20.5867952,66.0518359 L20.4091486,67.8417578 L13.5492048,67.8417578 L10.9985221,42.1539453 L16.979245,42.1539453 C17.5745863,42.1539453 18.057004,41.6707813 18.057004,41.0748242 C18.057004,40.4788672 17.5745863,39.9957031 16.979245,39.9957031 L10.7842811,39.9957031 L9.95189558,31.6119727 C9.99354217,32.0174805 12.5883293,32.0408594 12.9531807,32.0408594 L21.0054458,32.0408594 C22.0176627,32.0408594 23.0350683,31.898125 24.0064578,31.6118359 L23.1740723,39.9957031 L21.2904177,39.9957031 C20.6949398,39.9957031 20.2126586,40.4788672 20.2126586,41.0748242 C20.2126586,41.6707813 20.6949398,42.1539453 21.2904177,42.1539453 L22.9598313,42.1539453 L21.0155502,61.7353516 C20.9566988,62.3284375 21.3891406,62.8571289 21.9814779,62.915918 C22.0177992,62.9196094 22.0537108,62.9213867 22.0893494,62.9213867 C22.6366265,62.9213867 23.1051165,62.5057617 23.1604177,61.949043 L26.2690281,30.6425 C29.2542008,28.93625 31.3387149,25.8276758 31.6224578,22.2178906 L32.8808675,22.2178906 L32.8808675,22.2178906 Z" id="Fill-3" fill="#FFFFFF" mask="url(#mask-2)"></path>
            </g>
        </g>
    </g>
</svg>