<?xml version="1.0" encoding="UTF-8"?>
<svg width="111px" height="113px" viewBox="0 0 111 113" version="1.1" xmlns="http://www.w3.org/2000/svg" xmlns:xlink="http://www.w3.org/1999/xlink">
    <!-- Generator: Sketch 48.2 (47327) - http://www.bohemiancoding.com/sketch -->
    <title>punk</title>
    <desc>Created with Sketch.</desc>
    <defs></defs>
    <g id="Page-1" stroke="none" stroke-width="1" fill="none" fill-rule="evenodd">
        <g id="punk" fill="#FFFFFF">
            <g id="005-fashion" transform="translate(22.000000, 33.000000)">
                <path d="M67.8711317,39.0406237 L66.9861366,34.6714251 C66.9821561,34.6522648 66.9576098,34.5646516 66.9562829,34.5594111 C65.4805171,29.7189024 59.7273854,29.9900941 54.6501073,30.230007 C53.5655902,30.281101 52.5406146,30.3284286 51.5546146,30.3330139 C50.1189854,29.8870871 48.7453854,29.3669756 47.4308293,28.7856167 C47.5397951,28.3441115 47.3479024,27.8669059 46.9294537,27.6283031 C46.4630732,27.3621882 45.8786049,27.4856655 45.5580098,27.8950732 C44.5693561,27.3923206 43.6168585,26.8550139 42.7001854,26.28823 C42.9683707,25.840338 42.866039,25.2557038 42.4397951,24.9268676 C41.9772293,24.5693728 41.3085073,24.6505993 40.9471122,25.1079895 L40.9295317,25.1296063 C39.9908,24.4797944 39.0928683,23.8003415 38.2337463,23.0992718 C38.480039,22.6955958 38.4281268,22.164676 38.0750244,21.8160244 C37.6857659,21.4315087 37.0689561,21.4079268 36.6516683,21.7444599 C35.7699902,20.952993 34.9329268,20.1418746 34.1424683,19.3186376 C34.5798244,18.9431289 34.6328976,18.2893868 34.2579024,17.8505017 C33.8794244,17.4071951 33.2083805,17.3502056 32.7594146,17.7245679 L32.7113171,17.7635436 C31.9832195,16.9383415 31.2997366,16.1074077 30.6563902,15.2802404 C30.9136293,14.9769512 30.9867707,14.5419965 30.8053268,14.160101 C30.5618537,13.6470314 29.9515122,13.420547 29.428078,13.6399895 C28.6828976,12.605662 28.004722,11.5878746 27.3885756,10.6046411 C27.7907707,10.3174007 27.945678,9.78140418 27.7318927,9.31828223 C27.4875902,8.79047387 26.8573463,8.55760279 26.3228,8.79882578 L26.304722,8.80652265 C25.5991805,7.5864878 24.997961,6.4465331 24.4957561,5.42890941 C24.9674439,5.18703136 25.1923415,4.63056446 25.0004488,4.12764808 C24.7937951,3.58460976 24.179639,3.31014286 23.6303317,3.51484669 L23.6011415,3.52581882 C23.3691122,3.00636237 23.1735707,2.54438676 23.013522,2.15299303 C22.5010341,0.89725784 21.286322,0.0861393728 19.9198537,0.0861393728 L5.59109268,0.0861393728 C4.40092683,0.0861393728 3.41492683,1.04562718 3.39353171,2.22521254 C3.32287805,6.0749547 2.89597073,11.0875784 2.44435122,16.3951394 C1.85159024,23.3570348 1.18502439,31.2138955 1.13891707,38.4469826 C0.46057561,38.8172509 0,39.5299477 0,40.348108 L0,43.7091812 C0,45.5240035 1.49533659,46.9996725 3.33332683,46.9996725 L46.854322,46.9996725 C53.9394244,46.9996725 61.9501561,44.111547 65.3703902,42.8780836 C67.1979317,42.2192648 68.202839,40.6769443 67.8711317,39.0406237 Z M52.456361,32.4190279 C53.2169659,32.3992125 53.9924976,32.3640035 54.7511122,32.3281394 C59.7008488,32.094777 63.1817854,32.1163937 64.5286829,34.2952613 C59.590722,36.1701847 55.5215024,37.1503066 52.456361,37.6563345 L52.456361,32.4190279 Z M64.6408,40.9047387 C61.3263805,42.1002091 53.5629366,44.8995749 46.854322,44.8995749 L3.33332683,44.8995749 C2.66858537,44.8995749 2.12757073,44.3653798 2.12757073,43.7091812 L2.12757073,40.348108 C2.12757073,40.3097875 2.15941463,40.2783449 2.19822439,40.2783449 L5.60203902,40.2783449 C6.18965854,40.2783449 6.66582439,39.8081812 6.66582439,39.2279686 C6.66582439,38.6477561 6.18965854,38.1775923 5.60203902,38.1775923 L3.26781463,38.1775923 C3.32868293,31.1025366 3.98247805,23.4030523 4.56429268,16.5711847 C5.01906341,11.2284146 5.44862439,6.18238328 5.52043902,2.2635331 C5.52110244,2.21948084 5.55161951,2.18689199 5.59109268,2.18689199 L14.4941171,2.18689199 C14.6909854,2.72485366 15.0545366,3.6691115 15.6005268,4.91256446 C15.7741756,5.30919861 16.1655902,5.54583624 16.5769073,5.54583624 C16.7182146,5.54583624 16.8613463,5.51783275 16.9993366,5.45887805 C17.538361,5.22862718 17.7858146,4.61009408 17.5526244,4.07786411 C17.2189268,3.31849477 16.9592,2.68063763 16.7661463,2.18689199 L19.9193561,2.18689199 C20.4136,2.18689199 20.8534439,2.48182927 21.0400293,2.93856446 C21.1956,3.32045993 21.384839,3.7675331 21.6069171,4.26651916 L20.6157756,4.63498606 C20.0663024,4.83903484 19.7883317,5.44479443 19.9951512,5.98799652 C20.1556976,6.4088676 20.5607122,6.66859582 20.9907707,6.66859582 C21.115161,6.66859582 21.2422049,6.64681533 21.3659317,6.60079791 L22.5003707,6.17861672 C23.0160098,7.23030314 23.6354732,8.4116899 24.3642341,9.68085366 L23.3924976,10.1190836 C22.8579512,10.3596516 22.6227707,10.98277 22.8664098,11.5104146 C23.0452,11.8968955 23.4306439,12.1245261 23.8349951,12.1245261 C23.9827707,12.1245261 24.1330341,12.0945575 24.2755024,12.0298711 L25.4520683,11.4996063 C26.0642341,12.4841498 26.7361073,13.5037387 27.4739902,14.5419965 L26.4743902,15.0044634 C25.9424976,15.2507631 25.7137854,15.876338 25.9625659,16.4016899 C26.1440098,16.7829303 26.5268,17.0061394 26.9266732,17.0061394 C27.0782634,17.0061394 27.231678,16.9742056 27.3774634,16.9064077 L28.751561,16.2705157 C29.4771707,17.2159199 30.2560195,18.1678746 31.0897659,19.1139338 L30.2968195,19.7734077 C29.8478537,20.147115 29.7901366,20.8097003 30.1691122,21.253662 C30.3790829,21.4999617 30.6796098,21.6273693 30.9829561,21.6273693 C31.2252683,21.6273693 31.468078,21.5461429 31.6677659,21.3797596 L32.5182634,20.6723031 C33.3457073,21.5377909 34.2195902,22.3924704 35.143561,23.2258606 L34.2940585,24.0651463 C33.8789268,24.4752091 33.8789268,25.1405784 34.2940585,25.5506411 C34.502039,25.7553449 34.7742049,25.8576969 35.0463707,25.8576969 C35.3183707,25.8576969 35.5912,25.7553449 35.7985171,25.5506411 L36.7508488,24.6096585 C37.6637073,25.3611672 38.6186927,26.0899129 39.6196195,26.786561 L38.9646634,27.6142195 C38.6031024,28.0716098 38.6853659,28.7317387 39.1485951,29.0887422 C39.3429756,29.2384216 39.5735122,29.3114599 39.8022244,29.3114599 C40.1185073,29.3114599 40.4319707,29.1725889 40.641278,28.9071289 L41.3934244,27.9564843 C42.3834049,28.5756725 43.4121951,29.1629268 44.4837756,29.7118606 L43.8663024,30.7666585 C43.5729073,31.2689199 43.7472195,31.9116899 44.2557268,32.2015505 C44.4235707,32.2968606 44.6061756,32.342223 44.7869561,32.342223 C45.154322,32.342223 45.5119024,32.154223 45.7089366,31.8170348 L46.402039,30.6310627 C47.658878,31.1940801 48.9663024,31.7051847 50.3294537,32.1516028 L50.3294537,35.942554 C36.2648976,31.2394425 27.3308585,20.8794634 22.2716585,12.9012544 C21.9600195,12.4099652 21.3037366,12.260777 20.8055122,12.5684878 C20.3072878,12.8761986 20.156361,13.5242091 20.468,14.0161533 C25.7396585,22.3290941 35.0858439,33.1405679 49.8707024,38.0061324 C48.540722,38.1430383 47.5268585,38.1775923 46.8549854,38.1775923 L10.141122,38.1775923 C9.55350244,38.1775923 9.07717073,38.6477561 9.07717073,39.2273136 C9.07717073,39.8075261 9.55350244,40.2776899 10.141122,40.2776899 L46.854322,40.2776899 C53.6077171,40.2776899 61.3127805,37.7483693 65.1481463,36.3097108 L65.784361,39.4524878 C65.9716098,40.3749652 64.8650341,40.8240035 64.6408,40.9047387 Z" id="Fill-1"></path>
                <path d="M20.1512195,9.32008362 C19.7987805,8.68239024 19.4541366,8.03241463 19.1249171,7.38817073 C18.8607122,6.87002439 18.2211805,6.66220906 17.6964195,6.92259233 C17.1716585,7.1834669 16.9605268,7.81559233 17.2247317,8.33308362 C17.5642341,8.99779791 17.9199902,9.66808014 18.2827122,10.3257526 C18.4757659,10.6750592 18.8406439,10.8733763 19.2176293,10.8733763 C19.3899512,10.8733763 19.5642634,10.8324355 19.725639,10.7453136 C20.241278,10.4677352 20.431678,9.82938676 20.1512195,9.32008362 Z" id="Fill-4"></path>
                <path d="M14.6793756,15.7708746 C10.3386537,15.7708746 6.80779512,19.2572265 6.80779512,23.5432334 C6.80779512,27.8285854 10.3386537,31.3155923 14.6793756,31.3155923 C19.0200976,31.3155923 22.5509561,27.8285854 22.5509561,23.5432334 C22.5509561,19.2572265 19.0200976,15.7708746 14.6793756,15.7708746 Z M14.6793756,29.2148397 C11.5119024,29.2148397 8.93536585,26.6701254 8.93536585,23.5432334 C8.93536585,20.4156864 11.5119024,17.8709721 14.6793756,17.8709721 C17.8466829,17.8709721 20.4233854,20.4156864 20.4233854,23.5432334 C20.4233854,26.6707805 17.8466829,29.2148397 14.6793756,29.2148397 Z" id="Fill-5"></path>
            </g>
        </g>
    </g>
</svg>