<?xml version="1.0" encoding="UTF-8"?>
<svg width="111px" height="113px" viewBox="0 0 111 113" version="1.1" xmlns="http://www.w3.org/2000/svg" xmlns:xlink="http://www.w3.org/1999/xlink">
    <!-- Generator: Sketch 48.2 (47327) - http://www.bohemiancoding.com/sketch -->
    <title>rock</title>
    <desc>Created with Sketch.</desc>
    <defs></defs>
    <g id="Page-1" stroke="none" stroke-width="1" fill="none" fill-rule="evenodd">
        <g id="rock" fill="#FFFFFF">
            <g id="electric-guitar" transform="translate(19.000000, 21.000000)">
                <path d="M72.0485841,0.832405047 C71.3337548,0.111478946 70.2683406,-0.0232067066 69.3967563,0.496883784 L57.3060174,7.71503709 C57.0317502,7.87856846 56.8268629,8.13709551 56.731032,8.44203597 L56.2872178,9.85525934 C56.2041788,10.1187747 56.0560962,10.3601679 55.8570627,10.552545 L30.646812,34.9824836 C30.1190916,34.9892071 29.7099673,34.8562565 29.4339656,34.5792942 C28.7293266,33.8752851 28.8858648,33.3042266 28.9671693,33.118573 C29.0020761,33.0643517 30.5772154,30.4686707 30.614507,30.4042559 C32.201571,27.6550202 32.8994889,24.5542138 32.6336773,21.4213084 C32.2117611,16.4676525 30.7526163,9.9127339 26.1919755,6.81973536 C23.7816764,5.18463852 20.8139535,4.71941997 17.3560187,5.41930821 C15.4164184,5.13800823 13.2535017,5.35489334 10.8787597,6.07408436 C7.29377301,7.16111252 4.5471984,9.45445566 2.71600412,12.8899158 C-2.92609496,23.4782468 1.79628755,41.8525363 2.90571463,45.7716502 C1.22303658,47.7160252 0.302452762,50.1711647 0.302452762,52.7687976 C0.302452762,55.6305966 1.41686652,58.3221408 3.44015625,60.3461127 L10.6619477,67.5712063 C12.7504978,69.6604605 15.4936034,70.7041117 18.2367091,70.7041117 C20.9800315,70.7041117 23.7231371,69.6604605 25.8116873,67.5712063 C26.4400085,66.9426732 26.9881093,66.2384473 27.4395119,65.4786988 C28.7928525,63.6841914 29.8446076,61.1765657 30.5678924,58.0256589 C30.9921936,56.1797497 32.3049903,54.6554812 34.0793798,53.9488695 C36.1213154,53.1355503 38.9515795,51.7403284 40.2075715,50.4847805 C41.3577592,49.334205 41.8624976,48.1591215 41.7972372,46.7866725 C41.7389147,45.5751523 41.1628452,44.5321518 40.2567878,43.9968794 C39.4819016,43.5383843 38.5485259,43.5164789 37.6871318,43.9400555 C37.5483721,44.0094587 37.4321609,44.0645475 37.337414,44.1068401 C35.4682776,44.9591986 34.2020954,45.0719789 33.5737742,44.4432289 C32.7377471,43.6071369 33.811617,42.1184375 33.9852834,41.8907081 L60.4753755,14.7453679 L61.4492951,13.7709031 C62.21746,13.0024792 63.4667309,13.0024792 64.2348958,13.7709031 C64.5167515,14.0530706 64.9130838,14.1903589 65.3102834,14.1428611 C65.7068326,14.0947126 66.0591521,13.8676339 66.2666412,13.5260398 L72.3627447,3.48751255 C72.8895979,2.61997211 72.7631965,1.55246361 72.0485841,0.832405047 Z M57.2867212,12.7916668 L58.0251829,13.5303775 L29.5991764,42.659132 L28.0559084,41.1153438 L57.2867212,12.7916668 Z M30.0412561,21.6414468 C30.1750291,23.217334 30.0115528,24.7830276 29.5712076,26.2825712 C29.1443047,25.9385915 28.6462875,25.7039218 28.1161822,25.5972143 C28.1558588,22.0168749 27.7502035,12.7433015 22.8151284,8.06508965 C23.5045906,8.27525132 24.1448365,8.57585409 24.7317466,8.97405515 C26.7806202,10.3634212 29.3645858,13.6895712 30.0412561,21.6414468 Z M9.36519501,42.0778799 C8.36243944,37.8655374 7.05311168,30.9345399 7.31480378,24.2906984 C7.66473837,15.4255196 10.6890492,10.0678067 16.304914,8.36504176 C16.6708927,8.25486412 17.0281989,8.16073599 17.3805184,8.07766899 C18.5543387,8.30995294 19.6019743,8.78341313 20.5108503,9.50520678 C25.4355184,13.4175973 25.5669065,23.3207882 25.5007788,26.1181723 C22.6510017,27.6313797 20.4896027,30.5523884 18.9109944,35.0171852 C17.9429288,37.752974 15.7975739,39.8682545 13.0256323,40.8214645 L9.36519501,42.0778799 Z M5.01204336,14.1148829 C6.21209787,11.8629648 7.8221439,10.2584488 9.90050388,9.24429399 C8.8452798,10.3100674 7.94247456,11.577544 7.20227834,13.0473744 C5.72860707,15.977926 4.89171269,19.7259175 4.71566134,24.1883286 C4.43792515,31.2394804 5.84048207,38.5467735 6.88291424,42.8844757 C6.71770349,42.9530114 5.62193556,43.4919709 5.08575945,43.8450598 C3.7009811,38.4739001 0.322616279,22.9141286 5.01204336,14.1148829 Z M31.733257,46.2834991 C33.2086628,47.7591854 35.4572202,47.8236003 38.4036955,46.4808645 C38.5129688,46.4324992 38.6671221,46.3596258 38.841439,46.272438 C38.8982437,46.2444598 38.9329336,46.2377363 38.9296814,46.2351337 C39.0007958,46.2657145 39.1785816,46.5027699 39.1980947,46.9111646 C39.2193423,47.3585986 39.1337016,47.8778215 38.3672711,48.6436428 C37.6017078,49.4105486 35.392827,50.6244545 33.1163009,51.5310343 C30.5483794,52.5545151 28.648022,54.7639237 28.0322759,57.4428886 C27.397884,60.2081737 26.4697117,62.4514164 25.3474927,63.9316573 C25.3069489,63.9824084 25.2696572,64.0357621 25.236485,64.092586 C24.8893689,64.6881525 24.4633333,65.2388238 23.9720373,65.7302855 C20.8096172,68.8937717 15.6646681,68.8937717 12.5022481,65.7302855 L5.38040698,58.6060434 C3.83410368,57.059002 2.90831638,54.9732179 2.90419695,52.7848471 C2.89986071,50.6118752 3.74434351,48.5683837 5.2798062,47.0324034 C5.91831759,46.3934598 6.65504482,45.868381 7.47069162,45.4710475 C7.47567829,45.4684449 7.48088178,45.4658422 7.48500121,45.4632396 C8.06952641,45.1828072 9.99958697,44.611098 9.99958697,44.611098 L13.8709823,43.2826767 C17.398297,42.070289 20.1288275,39.3735395 21.3635719,35.8847257 C22.7524697,31.9554182 24.5726066,29.4740356 26.9161277,28.3150016 C26.9482158,28.2989521 26.9811713,28.2829026 27.0143435,28.2675038 C27.2090407,28.1744601 27.4275872,28.1395416 27.6409302,28.1692548 C27.694266,28.1768458 27.7155136,28.1829186 27.7755705,28.2022213 C27.9772057,28.2683713 28.0856117,28.4479522 28.1406819,28.5377426 C28.1517393,28.5546596 28.1651817,28.578517 28.1797081,28.6082303 C28.3202023,28.8877952 28.2948353,29.2239671 28.1287573,29.4892176 C28.1042575,29.529992 28.0788905,29.569682 28.0526563,29.6104564 C27.1871427,30.7397771 26.7535187,31.6877819 26.6425109,31.9504298 C26.5367066,32.1664474 26.3205451,32.6874054 26.298647,33.3855586 C26.2750145,34.15485 26.4799019,35.304558 27.5943156,36.420215 C27.860344,36.6854655 28.1575933,36.9047363 28.4810768,37.0801964 L25.3177895,40.1454336 C25.1866182,40.2733958 25.073876,40.4215284 25.0036289,40.5911325 C24.7928876,41.1001619 24.9182049,41.656906 25.2822323,42.0210561 L28.6903004,45.4302731 C28.9342139,45.6751364 29.2652859,45.8115571 29.610017,45.8115571 L29.6176054,45.8115571 C29.9632037,45.8115571 30.2944925,45.6725337 30.5358043,45.4252847 L30.9041679,45.047254 C31.0760998,45.4760358 31.3436458,45.8937566 31.733257,46.2834991 Z M64.7513421,11.0090881 C63.1642781,10.2814386 61.2444077,10.5091679 59.8672178,11.6918424 L58.7796887,10.6041636 L59.0652301,9.69584879 L69.2358818,3.62393328 L64.7513421,11.0090881 Z" id="Fill-1"></path>
                <path d="M13.7252846,51.8097317 C13.2172941,51.301353 12.3940589,51.301353 11.8858515,51.8097317 C11.3776441,52.3181104 11.3776441,53.1424907 11.8858515,53.6497849 L16.0247929,57.7901217 C16.2788966,58.044311 16.611703,58.1714057 16.9445094,58.1714057 C17.2773159,58.1714057 17.6101223,58.044311 17.864226,57.7901217 C18.3724334,57.2819598 18.3724334,56.4584471 17.864226,55.9500684 L13.7252846,51.8097317 Z" id="Fill-3"></path>
                <path d="M18.2902616,48.2176805 C17.7820543,47.7101693 16.9581686,47.7101693 16.4508285,48.2176805 C15.9426211,48.7258423 15.9426211,49.5502226 16.4508285,50.0577338 L19.6156335,53.2238226 C19.8688699,53.477795 20.2025436,53.6048897 20.5355669,53.6048897 C20.8683733,53.6048897 21.2011797,53.477795 21.4552834,53.2238226 C21.9634908,52.7163114 21.9634908,51.8919311 21.4552834,51.3835524 L18.2902616,48.2176805 Z" id="Fill-4"></path>
                <path d="M23.2194828,43.2867975 C22.7112754,42.7784189 21.8880402,42.7784189 21.3798328,43.2867975 C20.8716255,43.7951762 20.8716255,44.6195565 21.3798328,45.1270677 L24.5448547,48.2929396 C24.7989583,48.547129 25.1317648,48.6742236 25.4645712,48.6742236 C25.7973777,48.6742236 26.1301841,48.547129 26.3842878,48.2929396 C26.8924952,47.7845609 26.8924952,46.9612651 26.3842878,46.4528864 L23.2194828,43.2867975 Z" id="Fill-5"></path>
            </g>
        </g>
    </g>
</svg>